<svg xmlns="http://www.w3.org/2000/svg" xmlns:xlink="http://www.w3.org/1999/xlink" xmlns:lucid="lucid" width="1660" height="600"><g transform="translate(20 60)" lucid:page-tab-id="0_0"><path d="M800-34c0-3.3 2.7-6 6-6h808c3.3 0 6 2.7 6 6v248c0 3.3-2.7 6-6 6H806c-3.3 0-6-2.7-6-6z" fill="#fff" fill-opacity="0"/><path d="M823.82-40h11.9m11.87 0h11.87m11.88 0h11.9m11.87 0H907m11.88 0h11.88m11.9 0h11.87m11.88 0h11.9m11.88 0h11.88m11.88 0h11.88m11.9 0h11.87m11.87 0h11.88m11.9 0h11.87m11.88 0h11.88m11.88 0h11.9m11.87 0h11.88m11.9 0h11.88m11.88 0h11.88m11.88 0h11.9m11.87 0h11.87m11.88 0h11.9m11.87 0H1311m11.88 0h11.88m11.9 0h11.87m11.88 0h11.9m11.88 0h11.88m11.88 0h11.88m11.9 0h11.87m11.87 0h11.88m11.9 0h11.87m11.88 0h11.88m11.88 0h11.9m11.87 0h11.88m11.9 0h11.88m11.88 0h5.94l3.03.82 2.15 2.15.82 3.03v6.2m0 12.4V-3m0 12.4v12.4m0 12.4v12.4m0 12.4v12.4m0 12.4v12.4m0 12.4V121m0 12.4v12.4m0 12.4v12.4m0 12.4v12.4m0 12.4v6.2l-.82 3.03-2.15 2.15-3.03.82h-5.94m-11.88 0h-11.9m-11.87 0h-11.87m-11.88 0h-11.9m-11.87 0H1513m-11.88 0h-11.88m-11.9 0h-11.87m-11.88 0h-11.9m-11.88 0h-11.88m-11.88 0h-11.88m-11.9 0h-11.87m-11.87 0h-11.88m-11.9 0h-11.87m-11.88 0h-11.88m-11.88 0h-11.9m-11.87 0h-11.88m-11.9 0h-11.88m-11.88 0h-11.88m-11.88 0h-11.9m-11.87 0h-11.87m-11.88 0h-11.9m-11.87 0H1109m-11.88 0h-11.88m-11.9 0h-11.87m-11.88 0h-11.9m-11.88 0h-11.88m-11.88 0h-11.88m-11.9 0h-11.87m-11.87 0h-11.88m-11.9 0H918.9M907 220h-11.88m-11.88 0h-11.9m-11.87 0H847.6m-11.9 0h-11.88m-11.88 0H806l-3.03-.82-2.15-2.15L800 214v-6.2m0-12.4V183m0-12.4v-12.4m0-12.4v-12.4m0-12.4v-12.4m0-12.4V83.8m0-12.4V59m0-12.4V34.2m0-12.4V9.4M800-3v-12.4m0-12.4V-34l.82-3.03 2.15-2.15L806-40h5.94" stroke="#fc9432" stroke-width="3" fill="none"/><use xlink:href="#a" transform="matrix(1,0,0,1,800,-20) translate(370.1 14.4)"/><use xlink:href="#b" transform="matrix(1,0,0,1,800,-20) translate(436.95000000000005 14.4)"/><path d="M800 246c0-3.3 2.7-6 6-6h808c3.3 0 6 2.7 6 6v268c0 3.3-2.7 6-6 6H806c-3.3 0-6-2.7-6-6z" fill="#fff" fill-opacity="0"/><path d="M823.82 240h11.9m11.87 0h11.87m11.88 0h11.9m11.87 0H907m11.88 0h11.88m11.9 0h11.87m11.88 0h11.9m11.88 0h11.88m11.88 0h11.88m11.9 0h11.87m11.87 0h11.88m11.9 0h11.87m11.88 0h11.88m11.88 0h11.9m11.87 0h11.88m11.9 0h11.88m11.88 0h11.88m11.88 0h11.9m11.87 0h11.87m11.88 0h11.9m11.87 0H1311m11.88 0h11.88m11.9 0h11.87m11.88 0h11.9m11.88 0h11.88m11.88 0h11.88m11.9 0h11.87m11.87 0h11.88m11.9 0h11.87m11.88 0h11.88m11.88 0h11.9m11.87 0h11.88m11.9 0h11.88m11.88 0h5.94l3.03.82 2.15 2.15.82 3.03v6.1m0 12.17v12.18m0 12.2v12.17m0 12.18v12.18m0 12.18v12.2m0 12.17v12.18m0 12.2v12.17m0 12.18v12.2m0 12.17V447m0 12.18v12.18m0 12.2v12.17m0 12.18v6.1l-.82 3.03-2.15 2.15-3.03.82h-5.94m-11.88 0h-11.9m-11.87 0h-11.87m-11.88 0h-11.9m-11.87 0H1513m-11.88 0h-11.88m-11.9 0h-11.87m-11.88 0h-11.9m-11.88 0h-11.88m-11.88 0h-11.88m-11.9 0h-11.87m-11.87 0h-11.88m-11.9 0h-11.87m-11.88 0h-11.88m-11.88 0h-11.9m-11.87 0h-11.88m-11.9 0h-11.88m-11.88 0h-11.88m-11.88 0h-11.9m-11.87 0h-11.87m-11.88 0h-11.9m-11.87 0H1109m-11.88 0h-11.88m-11.9 0h-11.87m-11.88 0h-11.9m-11.88 0h-11.88m-11.88 0h-11.88m-11.9 0h-11.87m-11.87 0h-11.88m-11.9 0H918.9M907 520h-11.88m-11.88 0h-11.9m-11.87 0H847.6m-11.9 0h-11.88m-11.88 0H806l-3.03-.82-2.15-2.15L800 514v-6.1m0-12.17v-12.18m0-12.2V459.2m0-12.18v-12.18m0-12.18v-12.2m0-12.17V386.1m0-12.2v-12.17m0-12.18v-12.2m0-12.17V313m0-12.18v-12.18m0-12.2v-12.17m0-12.18V246l.82-3.03 2.15-2.15L806 240h5.94" stroke="#fc9432" stroke-width="3" fill="none"/><use xlink:href="#a" transform="matrix(1,0,0,1,800,260) translate(370.1 14.4)"/><use xlink:href="#c" transform="matrix(1,0,0,1,800,260) translate(436.95000000000005 14.4)"/><path d="M820 46c0-3.3 2.7-6 6-6h408c3.3 0 6 2.7 6 6v143.6c0 3.3-2.7 6-6 6H826c-3.3 0-6-2.7-6-6z" fill="#fff" fill-opacity="0"/><path d="M844 40h12m12 0h12m12 0h12m12 0h12m12 0h12m12 0h12m12 0h12m12 0h12m12 0h12m12 0h12m12 0h12m12 0h12m12 0h12m12 0h12m12 0h12m12 0h12m12 0h6l3.03.82 2.15 2.15.82 3.03v5.98m0 11.97v11.97m0 11.96v11.97m0 11.97v11.96m0 11.97v11.97m0 11.96v11.97m0 11.97v5.98l-.82 3.03-2.15 2.15-3.03.82h-6m-12 0h-12m-12 0h-12m-12 0h-12m-12 0h-12m-12 0h-12m-12 0h-12m-12 0h-12m-12 0h-12m-12 0h-12m-12 0h-12m-12 0h-12m-12 0h-12m-12 0h-12m-12 0h-12m-12 0h-12m-12 0h-12m-12 0h-6l-3.03-.82-2.15-2.15-.82-3.03v-5.98m0-11.97v-11.97m0-11.96v-11.97m0-11.97v-11.96m0-11.97V87.88m0-11.96V63.95m0-11.97V46l.82-3.03 2.15-2.15L826 40h6" stroke="#147eba" stroke-width="3" fill="none"/><path d="M820 326c0-3.3 2.7-6 6-6h408c3.3 0 6 2.7 6 6v143.6c0 3.3-2.7 6-6 6H826c-3.3 0-6-2.7-6-6z" fill="#fff" fill-opacity="0"/><path d="M844 320h12m12 0h12m12 0h12m12 0h12m12 0h12m12 0h12m12 0h12m12 0h12m12 0h12m12 0h12m12 0h12m12 0h12m12 0h12m12 0h12m12 0h12m12 0h12m12 0h6l3.03.82 2.15 2.15.82 3.03v5.98m0 11.97v11.97m0 11.96v11.97m0 11.97v11.96m0 11.97v11.97m0 11.96v11.97m0 11.97v5.98l-.82 3.03-2.15 2.15-3.03.82h-6m-12 0h-12m-12 0h-12m-12 0h-12m-12 0h-12m-12 0h-12m-12 0h-12m-12 0h-12m-12 0h-12m-12 0h-12m-12 0h-12m-12 0h-12m-12 0h-12m-12 0h-12m-12 0h-12m-12 0h-12m-12 0h-12m-12 0h-6l-3.03-.82-2.15-2.15-.82-3.03v-5.98m0-11.97v-11.97m0-11.96v-11.97m0-11.97v-11.96m0-11.97v-11.97m0-11.96v-11.97m0-11.97V326l.82-3.03 2.15-2.15L826 320h6" stroke="#147eba" stroke-width="3" fill="none"/><path d="M1400 21.6c0-3.3 2.7-6 6-6h168c3.3 0 6 2.7 6 6V174c0 3.3-2.7 6-6 6h-168c-3.3 0-6-2.7-6-6z" fill="#fff" fill-opacity="0"/><path d="M1424 15.6h12m12 0h12m12 0h12m12 0h12m12 0h12m12 0h12m12 0h6l3.03.82 2.15 2.15.82 3.03v6.35m0 12.7v12.7m0 12.7v12.7m0 12.7v12.7m0 12.7v12.7m0 12.7v12.7m0 12.7V174l-.82 3.03-2.15 2.15-3.03.82h-6m-12 0h-12m-12 0h-12m-12 0h-12m-12 0h-12m-12 0h-12m-12 0h-12m-12 0h-6l-3.03-.82-2.15-2.15-.82-3.03v-6.35m0-12.7v-12.7m0-12.7v-12.7m0-12.7v-12.7m0-12.7v-12.7m0-12.7v-12.7m0-12.7V21.6l.82-3.03 2.15-2.15 3.03-.82h6" stroke="#147eba" stroke-width="3" fill="none"/><path d="M1400 301.6c0-3.3 2.7-6 6-6h168c3.3 0 6 2.7 6 6V474c0 3.3-2.7 6-6 6h-168c-3.3 0-6-2.7-6-6z" fill="#fff" fill-opacity="0"/><path d="M1424 295.6h12m12 0h12m12 0h12m12 0h12m12 0h12m12 0h12m12 0h6l3.03.82 2.15 2.15.82 3.03v6.16m0 12.3v12.33m0 12.3V357m0 12.33v12.3m0 12.33v12.3m0 12.33v12.3m0 12.3v12.33m0 12.3V474l-.82 3.03-2.15 2.15-3.03.82h-6m-12 0h-12m-12 0h-12m-12 0h-12m-12 0h-12m-12 0h-12m-12 0h-12m-12 0h-6l-3.03-.82-2.15-2.15-.82-3.03v-6.16m0-12.3V443.2m0-12.3v-12.3m0-12.33v-12.3m0-12.33v-12.3m0-12.33v-12.3m0-12.3v-12.33m0-12.3v-6.17l.82-3.03 2.15-2.15 3.03-.82h6" stroke="#147eba" stroke-width="3" fill="none"/><path d="M1280-14c0-3.3 2.7-6 6-6h308c3.3 0 6 2.7 6 6v208c0 3.3-2.7 6-6 6h-308c-3.3 0-6-2.7-6-6z" fill="#fff" fill-opacity="0"/><path d="M1303.77-20h11.85m11.84 0h11.85m11.85 0H1363m11.85 0h11.84m11.84 0h11.84m11.85 0h11.85m11.84 0h11.85m11.85 0h11.84m11.85 0h11.85m11.85 0h11.85m11.84 0h11.84m11.84 0h11.85m11.85 0h5.92l3.03.82 2.15 2.15.82 3.03v5.78m0 11.55V14.9m0 11.54V38m0 11.56V61.1m0 11.57v11.55m0 11.56v11.55m0 11.56v11.54m0 11.56v11.56m0 11.55v11.57m0 11.55V194l-.82 3.03-2.15 2.15-3.03.82h-5.92m-11.85 0h-11.85m-11.84 0h-11.85m-11.85 0H1517m-11.85 0h-11.84m-11.84 0h-11.84m-11.85 0h-11.85m-11.84 0h-11.85m-11.85 0h-11.84m-11.85 0h-11.85m-11.85 0h-11.85m-11.84 0h-11.84m-11.84 0h-11.85m-11.85 0H1286l-3.03-.82-2.15-2.15-.82-3.03v-5.78m0-11.55V165.1m0-11.54V142m0-11.56V118.9m0-11.57V95.78m0-11.56V72.67m0-11.56V49.57m0-11.56V26.44m0-11.55V3.32m0-11.55V-14l.82-3.03 2.15-2.15L1286-20h5.92" stroke="#54c45e" stroke-width="3" fill="none"/><path d="M1280 266c0-3.3 2.7-6 6-6h308c3.3 0 6 2.7 6 6v228c0 3.3-2.7 6-6 6h-308c-3.3 0-6-2.7-6-6z" fill="#fff" fill-opacity="0"/><path d="M1303.77 260h11.85m11.84 0h11.85m11.85 0H1363m11.85 0h11.84m11.84 0h11.84m11.85 0h11.85m11.84 0h11.85m11.85 0h11.84m11.85 0h11.85m11.85 0h11.85m11.84 0h11.84m11.84 0h11.85m11.85 0h5.92l3.03.82 2.15 2.15.82 3.03v5.7m0 11.4v11.4m0 11.4v11.4m0 11.4v11.4m0 11.4v11.4m0 11.4v11.4m0 11.4v11.4m0 11.4v11.4m0 11.4v11.4m0 11.4v11.4m0 11.4v5.7l-.82 3.03-2.15 2.15-3.03.82h-5.92m-11.85 0h-11.85m-11.84 0h-11.85m-11.85 0H1517m-11.85 0h-11.84m-11.84 0h-11.84m-11.85 0h-11.85m-11.84 0h-11.85m-11.85 0h-11.84m-11.85 0h-11.85m-11.85 0h-11.85m-11.84 0h-11.84m-11.84 0h-11.85m-11.85 0H1286l-3.03-.82-2.15-2.15-.82-3.03v-5.7m0-11.4v-11.4m0-11.4v-11.4m0-11.4v-11.4m0-11.4v-11.4m0-11.4v-11.4m0-11.4v-11.4m0-11.4v-11.4m0-11.4v-11.4m0-11.4v-11.4m0-11.4V266l.82-3.03 2.15-2.15 3.03-.82h5.92" stroke="#54c45e" stroke-width="3" fill="none"/><path d="M83.8 276l-8.9-5.9-7.5 12.42-8.6-2.56-7.6 11.66.4 3.64 41.3-7.6-2.4-25.9L83.8 276zm-38.6-11.14l6.6-.96c1.1.54 1.8.75 3.1 1.07 2 .54 4.4.96 7.8-.75.8-.43 2.5-1.93 3.1-2.78L93 256.5l2.8 33.62-46.6 8.35-4-33.6zm50.5-12.1l-2.7.54-5.1-53.3L0 210.17l10.8 87.87 10.3-1.5c-.8-1.17-2.1-2.56-4.3-4.38-3-2.57-1.9-6.85-.1-9.53 2.3-4.6 14.5-10.38 13.8-17.66-.2-2.68-.7-6.1-3.1-8.46-.1.98 0 1.94 0 1.94s-1-1.28-1.5-3c-.5-.74-.9-.96-1.4-1.8-.4 1.06-.3 2.23-.3 2.23s-.8-1.92-1-3.64c-.5.75-.6 2.14-.6 2.14s-1.1-3-.8-4.7c-.5-1.4-2-4.3-1.6-10.82 2.7 1.93 8.6 1.4 10.9-1.92.8-1.18 1.3-4.18-.3-10.28-1.1-3.85-3.8-9.63-4.8-11.77l-.1.1 2.1 7.18c1.3 5.46 1.6 7.38 1 9.84-.5 2.14-1.8 3.64-4.9 5.25-3.2 1.6-7.4-2.36-7.7-2.57-3-2.46-5.4-6.42-5.7-8.35-.3-2.14 1.2-3.42 2-5.14-1.1.3-2.3.85-2.3.85s1.4-1.5 3.2-2.78c.8-.54 1.2-.86 2-1.5h-2.1s1.9-.97 3.8-1.7c-1.4-.12-2.7 0-2.7 0s4.1-1.94 7.4-3.23c2.3-.96 4.5-.64 5.8 1.07 1.6 2.37 3.3 3.65 7 4.5 2.2-.95 2.9-1.5 5.7-2.24 2.5-2.78 4.4-3.1 4.4-3.1s-.9.85-1.2 2.25c1.4-1.06 2.9-2.03 2.9-2.03s-.6.75-1.1 1.93l.1.2c1.7-.95 3.6-1.8 3.6-1.8s-.6.74-1.2 1.6c1.2 0 3.7.1 4.7.2 5.7.12 6.9-6.1 9.1-6.94 2.8-.97 4-1.5 8.7 3.1 4 3.96 7.2 11.02 5.6 12.63-1.3 1.27-3.9-.55-6.7-4.18-1.6-1.82-2.7-4.07-3.2-6.96-.5-2.36-2.3-3.75-2.3-3.75s1.1 2.26 1.1 4.3c0 1.06.1 5.24 1.9 7.5-.2.3-.3 1.7-.5 1.9-2-2.45-6.4-4.27-7.1-4.8 2.4 2.03 8 6.63 10.1 10.9 2 4.2.8 8.04 1.9 9 .2.22 4.3 5.36 5.1 7.82 1.3 4.5.1 9.1-1.7 12l-5 .74c-.7-.1-1.2-.22-1.9-.65.4-.63 1.1-2.23 1.1-2.56l-.3-.42c-1.5 2.14-4.1 4.28-6.3 5.56-2.8 1.5-6.1 1.3-8.2.64-6-1.82-11.7-5.88-13-6.95 0 0-.1.85.2 1.07 1.5 1.6 5 4.7 8.3 6.95l-7.1.74 3.3 26.34c-1.5.2-1.7.32-3.3.53-1.5-5.13-4.2-8.45-7.3-10.37-2.6-1.7-6.3-2.14-9.8-1.4l-.3.22c2.5-.2 5.4.1 8.3 2.03 3 1.82 5.3 6.64 6.2 9.42 1.1 3.75 1.8 7.6-1.1 11.78-2.2 3-8.3 4.6-13.4 1.07 1.4 2.14 3.2 3.85 5.6 4.28 3.6.43 7.1-.22 9.4-2.57 2-2.14 3.1-6.42 2.8-11.02l3.2-.43 1.2 8.14 52.7-6.3-4.3-41.97zm-32.1-22.25c-.1.33-.4.65 0 1.72l.1.2.1.33c.6 1.3 1.3 2.46 2.5 3.1.3-.1.6-.1.9-.1 1.1-.1 1.7.1 2.2.32v-.96c-.1-1.6.3-4.38-2.8-5.88-1.2-.53-2.8-.32-3.4.32.1 0 .2 0 .3.1.8.22.3.54.1.87m8.7 15.2c-.4-.2-2.3-.2-3.6 0-2.6.33-5.3 1.18-5.9 1.6-1.1.87-.6 2.36.2 3 2.2 1.72 4.2 2.8 6.4 2.58 1.2-.22 2.4-2.25 3.2-4.07.6-1.28.6-2.67-.3-3.1m-22.6-13.16c.7-.64-3.6-1.6-6.9.75-2.5 1.6-2.6 5.23-.2 7.27.2.2.4.32.6.42.7-.33 1.5-.65 2.4-.86 1.5-.54 2.8-.75 3.8-.96.5-.54 1.1-1.5.9-3.32-.1-2.36-2-2.04-.6-3.32" stroke="#000" stroke-opacity="0" stroke-width=".18" fill="#632ca6"/><path d="M175.43 278.72l-9.48-2.5-8.96-9.67 10 .78 8.43 11.4z" fill="#b8852e"/><path d="M175.43 278.72l6.78-13.44-6.32-.85-8.9 2.9 8.45 11.4z" fill="#d9a741"/><path d="M153.5 272.35l-5.3-1.42-5.88-6.33 6.24.92 4.95 6.83z" fill="#b8852e"/><path d="M153.5 272.35l3.83-7.56-3.56-.5-5.22 1.22 4.96 6.83z" fill="#d9a741"/><path d="M140 264.78l5.46 1.07 26.65-21.96-26.64-24.6-5.46 2.62v42.86z" fill="#876929"/><path d="M166.5 223.64V264l-21.06 1.85V219.3l21.05 4.34z" fill="#d9a741"/><path d="M152.17 267.22l9.33 1.78 25.78-28.28-25.78-29.1-9.33 4.48v51.12z" fill="#876929"/><path d="M214.8 227.64v34.88L161.5 269v-57.37l53.3 16z" fill="#d9a741"/><path d="M205.16 287.03l-13.47-3.57-12.74-13.75 14.2 1.13 12 16.2z" fill="#b8852e"/><path d="M205.15 287.03l9.65-19.1-9.02-1.22-12.6 4.14 11.97 16.2z" fill="#d9a741"/><path d="M172.1 270.9l13.73 2.5 18.64-36.7-18.64-36.7-13.72 6.6v64.3z" fill="#876929"/><path d="M185.85 273.4l45.9-8.66v-43L185.84 200v73.4z" fill="#d9a741"/><use xlink:href="#d" transform="matrix(1,0,0,1,140,287.03594199954944) translate(11.506172839506185 14.222222222222221)"/><use xlink:href="#e" transform="matrix(1,0,0,1,140,287.03594199954944) translate(27.75308641975309 35.55555555555556)"/><path d="M96.78 253.52h24.72" stroke="#5e5e5e" stroke-width="2" fill="none"/><path d="M96.8 254.52h-.92l-.18-1.75-2.7.53-.07-.78h3.87z" stroke="#5e5e5e" stroke-width=".05" fill="#5e5e5e"/><path d="M136.76 253.52l-14.26 4.64v-9.27z" stroke="#5e5e5e" stroke-width="2" fill="#5e5e5e"/><path d="M271.75 228.2v40.82l37.84 18.02 37.83-18.02v-10.18L315.27 255v-22.97l32.16-3.83v-10.18L309.6 200l-37.85 18.02v10.18z" fill="#876929"/><path d="M271.76 258.8l37.82 10.82v17.4l-37.82-18v-10.2z" fill="#876929"/><path d="M276.57 271.3l-4.82-2.27V218l4.83-2.28v55.6z" fill="#876929"/><path d="M315.26 255.02l-38.7 5.17v-33.37l38.7 5.2v23zM347.43 228.23L309.6 217.4V200l37.83 18.04v10.2zM347.4 258.82l-37.8 10.8v17.4L347.4 269v-10.18z" fill="#d9a741"/><path d="M295.65 252.85l13.93 1.65v-22.07l-13.93 1.68v18.75zM281.6 251.2l9.05 1.07v-17.54l-9.04 1.08v15.4z" fill="#876929"/><path d="M276.58 226.83l33.02-9.43 37.83 10.82-32.17 3.8-38.68-5.2z" fill="#624a1e"/><path d="M276.57 260.18l33 9.45 37.83-10.8-32.16-3.82-38.67 5.18z" fill="#fad791"/><path d="M347.4 249.96l-37.8 4.54v-22.07l37.8 4.6v12.93z" fill="#d9a741"/><use xlink:href="#d" transform="matrix(1,0,0,1,271.745093142471,287.03594199954944) translate(3.506172839506185 14.222222222222221)"/><use xlink:href="#f" transform="matrix(1,0,0,1,271.745093142471,287.03594199954944) translate(19.234567901234573 35.55555555555556)"/><path d="M232.74 247.3h20.5" stroke="#5e5e5e" stroke-width="2" fill="none"/><path d="M232.76 248.3h-1.02v-2h1.02z" stroke="#5e5e5e" stroke-width=".05" fill="#5e5e5e"/><path d="M268.5 247.3l-14.26 4.65v-9.28z" stroke="#5e5e5e" stroke-width="2" fill="#5e5e5e"/><path d="M555.33 95.03l-4.83.2-10.95.95-8.58 1.1-6.9 1.2-5.7 1.2-4.77 1.25-4.05 1.23-3.47 1.22-3.03 1.2-1.1.48-2.45 1.16-2.3 1.2-2.2 1.27-2.07 1.3-2 1.4-1.9 1.45-1.86 1.53-1.8 1.62-1.76 1.72-1.72 1.85-1.7 1.98-1.72 2.15-1.7 2.36-1.75 2.62-1.77 2.95-1.87 3.4-2 4.05-2.28 5.1-12.92 36.03-3.15 8-2.52 5.7-2.28 4.6-2.17 3.94-2.1 3.47-2.07 3.14-2.08 2.85-2.1 2.63-2.12 2.46-2.17 2.3-2.24 2.2-2.3 2.07-2.4 1.98-2.5 1.9-2.62 1.82-2.76 1.75-2.93 1.7-3.12 1.62-3.33 1.57-3.6 1.52-3.9 1.45-4.25 1.38-4.67 1.3-5.17 1.2-5.77 1.1-6.5.97-7.33.77-.2-2 7.27-.76 6.43-.95 5.7-1.1 5.08-1.2 4.6-1.27 4.17-1.35 3.8-1.42 3.53-1.48 3.27-1.53 3.04-1.6 2.84-1.64 2.7-1.7 2.55-1.77 2.42-1.85 2.33-1.92 2.24-2.03 2.16-2.12 2.12-2.24 2.07-2.4 2.04-2.58 2-2.8 2.04-3.04 2.06-3.4 2.12-3.87 2.25-4.53 2.5-5.62 3.12-7.92 12.93-36.06 2.3-5.2 2.06-4.14 1.9-3.47 1.82-3.02 1.8-2.68 1.75-2.43 1.75-2.22 1.77-2.05 1.78-1.9 1.82-1.8 1.86-1.66 1.92-1.6 1.98-1.5 2.06-1.43 2.15-1.36 2.26-1.3 2.38-1.25 2.54-1.2 1.14-.5 3.1-1.22 3.55-1.24 4.13-1.26 4.84-1.25 5.78-1.24 7-1.2 8.66-1.1 11.03-.96 4.96-.22zm136.58 5.24l157.03 14.78 34.52 1.4-.08 2-34.57-1.4-157.07-14.8-7.27-.6v-2.02z" stroke="#5e5e5e" stroke-width=".05" fill="#5e5e5e"/><path d="M365.1 249.26l-14.45-4.06 14.07-5.2z" fill="#5e5e5e"/><path d="M366.14 250.6l-18.72-5.27 18.24-6.74zm-12.26-5.53l10.16 2.86-.27-6.5z" stroke="#5e5e5e" stroke-width=".05" fill="#5e5e5e"/><path d="M898.67 117.74l-14.35 4.36.17-9.26z" fill="#5e5e5e"/><path d="M901.9 117.8l-18.6 5.66.22-12.02zm-16.56 2.95l10.1-3.07-9.98-3.45z" stroke="#5e5e5e" stroke-width=".05" fill="#5e5e5e"/><use xlink:href="#g" transform="matrix(1,0,0,1,555.3257779809106,84.43518432380971) translate(0 14.222222222222223)"/><use xlink:href="#h" transform="matrix(1,0,0,1,555.3257779809106,84.43518432380971) translate(60.14814814814815 14.222222222222223)"/><path d="M373.4 247.38l6.46.95 5.72 1.1 5.1 1.2 4.6 1.27 4.2 1.36 3.8 1.42 3.53 1.48 3.27 1.53 3.04 1.58 2.86 1.65 2.7 1.7 2.53 1.77 2.42 1.84 2.3 1.92 2.24 2 2.15 2.1 2.1 2.24 2.04 2.36 2 2.53 2 2.72 1.96 2.97 2 3.27 2 3.68 2.1 4.23 2.26 5.07 2.58 6.54 3.64 10.52 9.98 30.67 2.52 6.36 2.18 4.92 2.03 4.1 1.94 3.53 1.9 3.15 1.88 2.83 1.88 2.6 1.9 2.4 1.94 2.23 1.97 2.12 2.04 2 2.1 1.87 2.18 1.8 2.28 1.73 2.38 1.66 2.53 1.6 2.55 1.46 2.88 1.5 3.25 1.54 3.7 1.57 4.26 1.6 4.94 1.6 5.8 1.63 6.94 1.64 8.4 1.6 10.37 1.55 11.2 1.2v2l-11.47-1.22-10.46-1.56-8.47-1.63-7-1.66-5.9-1.65-5.02-1.66-4.34-1.62-3.78-1.6-3.33-1.56-2.94-1.55-2.63-1.5-2.6-1.65-2.45-1.7-2.34-1.78-2.25-1.86-2.16-1.94-2.1-2.04-2.02-2.17-2-2.3-1.94-2.47-1.92-2.66-1.93-2.9-1.95-3.2-1.98-3.63-2.07-4.17-2.22-5-2.55-6.47-10-30.7-3.62-10.48-2.54-6.45-2.22-5-2.07-4.16-1.98-3.6-1.94-3.2-1.9-2.9-1.95-2.67-1.95-2.46-1.98-2.3-2.04-2.17-2.1-2.05-2.15-1.95-2.26-1.86-2.35-1.78-2.48-1.72-2.6-1.66-2.8-1.6-2.96-1.56-3.18-1.5-3.45-1.44-3.74-1.4-4.1-1.32-4.5-1.26-5.04-1.18-5.64-1.07-6.38-.93-7.34-.77.2-2zm510.1 152.5l-191.45 11.3v-2l191.32-11.3z" stroke="#5e5e5e" stroke-width=".05" fill="#5e5e5e"/><path d="M364.72 252.2l-14.07-5.2 14.44-4.07z" fill="#5e5e5e"/><path d="M365.67 253.6l-18.25-6.73 18.72-5.27zm-11.8-6.47l9.9 3.65.26-6.5z" stroke="#5e5e5e" stroke-width=".05" fill="#5e5e5e"/><path d="M898.67 398l-13.97 5.46-.54-9.26z" fill="#5e5e5e"/><path d="M901.9 397.8l-18.1 7.1-.72-12zm-16.28 4.23l9.82-3.85-10.2-2.66z" stroke="#5e5e5e" stroke-width=".05" fill="#5e5e5e"/><use xlink:href="#g" transform="matrix(1,0,0,1,562.911742800701,402.6351249534507) translate(0 14.222222222222223)"/><use xlink:href="#h" transform="matrix(1,0,0,1,562.911742800701,402.6351249534507) translate(60.14814814814815 14.222222222222223)"/><path d="M859.9 324.96c-.4.03-.7.1-1 .26l-13.15 6.48c-.72.34-1.2.95-1.36 1.74l-3.27 14.6c-.15.67-.04 1.35.34 1.96.04.08.08.1.15.2l9.1 11.66c.5.64 1.17 1 1.97 1h14.6c.8 0 1.5-.36 1.98-1l9.1-11.67c.5-.65.68-1.4.5-2.2l-3.27-14.56c-.14-.8-.63-1.4-1.35-1.74l-13.15-6.48c-.42-.2-.8-.3-1.2-.26z" stroke="#000" stroke-opacity="0" stroke-width="3.83" fill="#326ce5"/><path d="M859.88 323.9c-.4.04-.72.12-1.04.28l-13.88 6.84c-.76.36-1.28 1-1.44 1.84l-3.44 15.4c-.16.72-.04 1.44.36 2.08.04.08.08.12.16.2l9.6 12.32c.52.68 1.24 1.04 2.08 1.04h15.44c.84 0 1.56-.36 2.08-1.04l9.6-12.32c.52-.68.72-1.48.52-2.28l-3.44-15.4c-.16-.84-.68-1.48-1.44-1.84l-13.88-6.84c-.44-.2-.84-.32-1.28-.28zm0 1.08c.44-.04.8.04 1.2.24l13.2 6.48c.68.36 1.16.96 1.36 1.76l3.24 14.56c.16.8 0 1.52-.48 2.16l-9.12 11.68c-.48.64-1.16 1-1.96 1h-14.64c-.8 0-1.48-.36-1.96-1l-9.12-11.68c-.04-.04-.08-.12-.12-.2-.4-.6-.52-1.24-.36-1.96l3.24-14.56c.2-.8.64-1.4 1.36-1.76l13.2-6.48c.32-.16.6-.24.96-.28z" stroke="#000" stroke-opacity="0" stroke-width="3.83" fill="#fff"/><path d="M851.85 336.64h-.8v1.83h.9v-1.77h1.68v-.9h-1.78zm2.65.06h1.77v-.9h-1.77zm2.67 0h1.77v-.9h-1.77zm2.67 0h1.77v-.9h-1.76zm2.65 0h1.76v-.9h-1.77zm2.65 0h1.78v-.9h-1.78zm2.65 0h.26v.67h.9v-1.12c0-.3-.15-.45-.46-.45h-.7zm.26 3.4h.9v-1.82h-.9zm-17 1.1h.88v-1.82h-.9zm17 1.65h.9v-1.82h-.9zm-17 1.1h.88v-1.83h-.9zm17 1.65h.9v-1.83h-.9zm-17 1.1h.88v-1.84h-.9zm17 1.64h.9v-1.83h-.9zm-17 1.1h.88v-1.83h-.9zm17 1.64h.9v-1.83h-.9zm-17 .47c-.03.3.1.47.43.45h.6v-.9h-.16v-.75h-.9zm1.94.45h1.77v-.9H853zm2.65 0h1.8v-.9h-1.8zm2.67 0h1.77v-.9h-1.78zm2.66 0h1.78v-.9h-1.78zm2.65 0h1.78v-.9h-1.77zm2.67 0h1.77v-.9h-1.77z" stroke="#000" stroke-opacity="0" stroke-width="3.77" fill="#fff"/><use xlink:href="#i" transform="matrix(1,0,0,1,810,372.9) translate(23.90123456790124 14.222222222222221)"/><use xlink:href="#j" transform="matrix(1,0,0,1,810,372.9) translate(55.407407407407405 14.222222222222221)"/><path d="M859.9 41.06c-.4.03-.7.1-1 .26l-13.15 6.48c-.72.34-1.2.95-1.36 1.74l-3.27 14.6c-.15.67-.04 1.35.34 1.96.04.08.08.1.15.2l9.1 11.66c.5.64 1.17 1 1.97 1h14.6c.8 0 1.5-.36 1.98-1l9.1-11.67c.5-.65.68-1.4.5-2.2l-3.27-14.56c-.14-.8-.63-1.4-1.35-1.74l-13.15-6.48c-.42-.2-.8-.3-1.2-.26z" stroke="#000" stroke-opacity="0" stroke-width="3.83" fill="#326ce5"/><path d="M859.88 40c-.4.04-.72.12-1.04.28l-13.88 6.84c-.76.36-1.28 1-1.44 1.84l-3.44 15.4c-.16.72-.04 1.44.36 2.08.04.08.08.12.16.2l9.6 12.32c.52.68 1.24 1.04 2.08 1.04h15.44c.84 0 1.56-.36 2.08-1.04l9.6-12.32c.52-.68.72-1.48.52-2.28l-3.44-15.4c-.16-.84-.68-1.48-1.44-1.84l-13.88-6.84c-.44-.2-.84-.32-1.28-.28zm0 1.08c.44-.04.8.04 1.2.24l13.2 6.48c.68.36 1.16.96 1.36 1.76l3.24 14.56c.16.8 0 1.52-.48 2.16l-9.12 11.68c-.48.64-1.16 1-1.96 1h-14.64c-.8 0-1.48-.36-1.96-1l-9.12-11.68c-.04-.04-.08-.12-.12-.2-.4-.6-.52-1.24-.36-1.96l3.24-14.56c.2-.8.64-1.4 1.36-1.76l13.2-6.48c.32-.16.6-.24.96-.28z" stroke="#000" stroke-opacity="0" stroke-width="3.83" fill="#fff"/><path d="M851.85 52.74h-.8v1.83h.9V52.8h1.68v-.9h-1.78zm2.65.06h1.77v-.9h-1.77zm2.67 0h1.77v-.9h-1.77zm2.67 0h1.77v-.9h-1.76zm2.65 0h1.76v-.9h-1.77zm2.65 0h1.78v-.9h-1.78zm2.65 0h.26v.67h.9v-1.12c0-.3-.15-.45-.46-.45h-.7zm.26 3.4h.9V54.4h-.9zm-17 1.1h.88V55.5h-.9zm17 1.65h.9v-1.82h-.9zm-17 1.1h.88v-1.83h-.9zm17 1.65h.9v-1.83h-.9zm-17 1.1h.88v-1.84h-.9zm17 1.64h.9V62.6h-.9zm-17 1.1h.88V63.7h-.9zm17 1.64h.9v-1.83h-.9zm-17 .47c-.03.3.1.47.43.45h.6v-.9h-.16v-.75h-.9zm1.94.45h1.77v-.9H853zm2.65 0h1.8v-.9h-1.8zm2.67 0h1.77v-.9h-1.78zm2.66 0h1.78v-.9h-1.78zm2.65 0h1.78v-.9h-1.77zm2.67 0h1.77v-.9h-1.77z" stroke="#000" stroke-opacity="0" stroke-width="3.77" fill="#fff"/><use xlink:href="#i" transform="matrix(1,0,0,1,810,89) translate(23.90123456790124 14.222222222222221)"/><use xlink:href="#j" transform="matrix(1,0,0,1,810,89) translate(55.407407407407405 14.222222222222221)"/><path d="M935.9 83.6c-.7.07-1.24.2-1.78.48l-23.74 11.7c-1.3.6-2.2 1.7-2.46 3.15l-5.88 26.33c-.27 1.23-.07 2.46.6 3.55.08.15.15.22.3.35l16.4 21.07c.9 1.16 2.12 1.78 3.56 1.78h26.4c1.44 0 2.67-.62 3.56-1.78l16.4-21.07c.9-1.16 1.24-2.53.9-3.96l-5.88-26.27c-.28-1.44-1.16-2.54-2.46-3.15l-23.74-11.7c-.75-.34-1.43-.54-2.2-.47z" stroke="#000" stroke-opacity="0" stroke-width="3.83" fill="#326ce5"/><path d="M935.88 81.7c-.72.07-1.3.22-1.87.5l-25.05 12.35c-1.37.65-2.3 1.8-2.6 3.32l-6.2 27.8c-.3 1.3-.08 2.6.64 3.75.07.15.14.22.28.37L918.4 152c.95 1.23 2.25 1.88 3.77 1.88h27.86c1.52 0 2.82-.65 3.76-1.88l17.32-22.23c.94-1.24 1.3-2.7.94-4.13l-6.2-27.8c-.3-1.5-1.24-2.67-2.6-3.32L938.18 82.2c-.8-.36-1.52-.57-2.32-.5zm0 1.95c.8-.07 1.45.07 2.17.43l23.83 11.7c1.22.65 2.1 1.73 2.45 3.18l5.85 26.28c.3 1.44 0 2.74-.87 3.9l-16.45 21.08c-.87 1.15-2.1 1.8-3.54 1.8h-26.4c-1.46 0-2.68-.65-3.55-1.8l-16.46-21.08c-.08-.08-.16-.22-.23-.37-.72-1.08-.94-2.23-.65-3.53l5.85-26.28c.36-1.45 1.15-2.53 2.45-3.18l23.83-11.7c.58-.3 1.08-.43 1.73-.5z" stroke="#000" stroke-opacity="0" stroke-width="3.83" fill="#fff"/><path d="M923.83 145.23c-.18.4-.43.67-.73.84-.3.17-.68.26-1.13.26-.75 0-1.3-.27-1.67-.8-.35-.5-.52-1.3-.52-2.37 0-2.14.73-3.2 2.2-3.2.44 0 .82.07 1.12.25.3.18.55.45.73.82v-3.24h1v7.16c0 .64 0 1.07.03 1.28h-.95c0-.06 0-.2-.03-.43-.02-.22-.02-.4-.02-.57zm-3-2.1c0 .86.1 1.48.32 1.85.22.37.58.56 1.07.56.57 0 .97-.2 1.23-.6.25-.4.38-1.03.38-1.88 0-.8-.13-1.4-.38-1.8-.26-.36-.66-.56-1.22-.56-.5 0-.85.2-1.08.58-.22.38-.33 1-.33 1.85zM927.1 143.36c0 .7.15 1.25.44 1.63.28.37.7.56 1.24.56.43 0 .77-.1 1.03-.26.27-.18.45-.4.54-.68l.87.26c-.35.96-1.16 1.45-2.42 1.45-.9 0-1.56-.27-2.02-.8-.46-.55-.7-1.36-.7-2.43 0-1 .24-1.8.7-2.34.46-.54 1.12-.8 1.98-.8 1.75 0 2.63 1.08 2.63 3.26v.14zm3.24-.8c-.05-.64-.2-1.1-.48-1.4-.26-.3-.64-.45-1.14-.45-.48 0-.87.18-1.15.5-.28.34-.43.8-.45 1.37zM937.68 143.1c0 2.15-.73 3.23-2.2 3.23-.9 0-1.53-.36-1.84-1.08h-.03c.03.04.03.36.03.98v2.4h-1v-7.3c0-.65 0-1.06-.03-1.27h.96l.02.16.03.44.02.4h.02c.18-.4.4-.66.7-.84.3-.18.67-.27 1.15-.27.73 0 1.28.25 1.64.77.36.5.54 1.3.54 2.4zm-1.04.03c0-.85-.1-1.47-.33-1.83-.22-.38-.58-.56-1.06-.56-.4 0-.7.1-.93.26-.2.17-.38.44-.5.8-.1.36-.17.83-.17 1.4 0 .82.13 1.4.38 1.8.26.38.66.57 1.23.57.5 0 .84-.2 1.07-.56.23-.36.34-1 .34-1.87zM938.92 146.22v-8.44h1v8.44zM946.48 143.13c0 1.08-.22 1.88-.68 2.4-.46.54-1.13.8-2 .8-.88 0-1.53-.28-1.98-.82-.44-.54-.67-1.33-.67-2.37 0-2.12.9-3.18 2.68-3.18.9 0 1.58.26 2 .78.44.5.65 1.32.65 2.4zm-1.04 0c0-.85-.12-1.46-.37-1.85-.24-.38-.65-.57-1.22-.57-.6 0-1 .2-1.27.6-.25.38-.4 1-.4 1.83 0 .8.14 1.43.4 1.83.25.4.66.6 1.2.6.6 0 1.02-.18 1.28-.58.25-.4.38-1 .38-1.85zM948.02 148.63c-.27 0-.5-.02-.7-.06v-.77c.15.02.3.03.48.03.6 0 1.1-.47 1.46-1.4l.1-.24-2.37-6.14h1.05l1.26 3.4.08.2.24.74.23.7.38-1.12 1.3-3.92h1.06l-2.3 6.15c-.25.67-.48 1.15-.7 1.48-.2.3-.44.55-.7.7-.26.17-.55.25-.88.25z" stroke="#000" stroke-opacity="0" fill="#fff"/><path d="M934.34 133.5c-9.78.47-18.1-7.27-18.6-17.32-.53-10.1 6.94-18.7 16.7-19.3 9.8-.6 18.18 7.05 18.82 17.13l-7.04.5c-.4-6.1-5.44-10.72-11.34-10.35-5.9.33-10.42 5.53-10.1 11.62.3 6.1 5.34 10.75 11.24 10.5z" stroke="#000" stroke-opacity="0" stroke-width="3.77" fill="#fff"/><path d="M938 114.02l5.58 14.1 12.9-14.1z" stroke="#000" stroke-opacity="0" stroke-width="3.77" fill="#fff"/><use xlink:href="#k" transform="matrix(1,0,0,1,870,162.9) translate(32.00617283950618 14.222222222222221)"/><path d="M935.9 363.6c-.7.07-1.24.2-1.78.48l-23.74 11.7c-1.3.6-2.2 1.7-2.46 3.15l-5.88 26.33c-.27 1.23-.07 2.46.6 3.55.08.15.15.22.3.35l16.4 21.07c.9 1.16 2.12 1.78 3.56 1.78h26.4c1.44 0 2.67-.62 3.56-1.78l16.4-21.07c.9-1.16 1.24-2.53.9-3.96l-5.88-26.27c-.28-1.44-1.16-2.54-2.46-3.15l-23.74-11.7c-.75-.34-1.43-.54-2.2-.47z" stroke="#000" stroke-opacity="0" stroke-width="3.83" fill="#326ce5"/><path d="M935.88 361.7c-.72.07-1.3.22-1.87.5l-25.05 12.35c-1.37.65-2.3 1.8-2.6 3.32l-6.2 27.8c-.3 1.3-.08 2.6.64 3.75.07.15.14.22.28.37L918.4 432c.95 1.23 2.25 1.88 3.77 1.88h27.86c1.52 0 2.82-.65 3.76-1.88l17.32-22.23c.94-1.24 1.3-2.7.94-4.13l-6.2-27.8c-.3-1.5-1.24-2.67-2.6-3.32l-25.07-12.34c-.8-.36-1.52-.57-2.32-.5zm0 1.95c.8-.07 1.45.07 2.17.43l23.83 11.7c1.22.65 2.1 1.73 2.45 3.18l5.85 26.28c.3 1.44 0 2.74-.87 3.9l-16.45 21.08c-.87 1.15-2.1 1.8-3.54 1.8h-26.4c-1.46 0-2.68-.65-3.55-1.8l-16.46-21.08c-.08-.08-.16-.22-.23-.37-.72-1.08-.94-2.23-.65-3.53l5.85-26.28c.36-1.45 1.15-2.53 2.45-3.18l23.83-11.7c.58-.3 1.08-.43 1.73-.5z" stroke="#000" stroke-opacity="0" stroke-width="3.83" fill="#fff"/><path d="M923.83 425.23c-.18.4-.43.67-.73.84-.3.17-.68.26-1.13.26-.75 0-1.3-.27-1.67-.8-.35-.5-.52-1.3-.52-2.37 0-2.14.73-3.2 2.2-3.2.44 0 .82.07 1.12.25.3.18.55.45.73.82v-3.24h1v7.16c0 .64 0 1.07.03 1.28h-.95c0-.06 0-.2-.03-.43-.02-.22-.02-.4-.02-.57zm-3-2.1c0 .86.1 1.48.32 1.85.22.37.58.56 1.07.56.57 0 .97-.2 1.23-.6.25-.4.38-1.03.38-1.88 0-.8-.13-1.4-.38-1.8-.26-.36-.66-.56-1.22-.56-.5 0-.85.2-1.08.58-.22.38-.33 1-.33 1.85zM927.1 423.36c0 .7.15 1.25.44 1.63.28.37.7.56 1.24.56.43 0 .77-.1 1.03-.26.27-.18.45-.4.54-.68l.87.26c-.35.96-1.16 1.45-2.42 1.45-.9 0-1.56-.27-2.02-.8-.46-.55-.7-1.36-.7-2.43 0-1 .24-1.8.7-2.34.46-.54 1.12-.8 1.98-.8 1.75 0 2.63 1.08 2.63 3.26v.14zm3.24-.8c-.05-.64-.2-1.1-.48-1.4-.26-.3-.64-.45-1.14-.45-.48 0-.87.18-1.15.5-.28.34-.43.8-.45 1.37zM937.68 423.1c0 2.15-.73 3.23-2.2 3.23-.9 0-1.53-.36-1.84-1.08h-.03c.03.04.03.36.03.98v2.4h-1v-7.3c0-.65 0-1.06-.03-1.27h.96l.02.16.03.44.02.4h.02c.18-.4.4-.66.7-.84.3-.18.67-.27 1.15-.27.73 0 1.28.25 1.64.77.36.5.54 1.3.54 2.4zm-1.04.03c0-.85-.1-1.47-.33-1.83-.22-.38-.58-.56-1.06-.56-.4 0-.7.1-.93.26-.2.17-.38.44-.5.8-.1.36-.17.83-.17 1.4 0 .82.13 1.4.38 1.8.26.38.66.57 1.23.57.5 0 .84-.2 1.07-.56.23-.36.34-1 .34-1.87zM938.92 426.22v-8.44h1v8.44zM946.48 423.13c0 1.08-.22 1.88-.68 2.4-.46.54-1.13.8-2 .8-.88 0-1.53-.28-1.98-.82-.44-.54-.67-1.33-.67-2.37 0-2.12.9-3.18 2.68-3.18.9 0 1.58.26 2 .78.44.5.65 1.32.65 2.4zm-1.04 0c0-.85-.12-1.46-.37-1.85-.24-.38-.65-.57-1.22-.57-.6 0-1 .2-1.27.6-.25.38-.4 1-.4 1.83 0 .8.14 1.43.4 1.83.25.4.66.6 1.2.6.6 0 1.02-.18 1.28-.58.25-.4.38-1 .38-1.85zM948.02 428.63c-.27 0-.5-.02-.7-.06v-.77c.15.02.3.03.48.03.6 0 1.1-.47 1.46-1.4l.1-.24-2.37-6.14h1.05l1.26 3.4.08.2.24.74.23.7.38-1.12 1.3-3.92h1.06l-2.3 6.15c-.25.67-.48 1.15-.7 1.48-.2.3-.44.55-.7.7-.26.17-.55.25-.88.25z" stroke="#000" stroke-opacity="0" fill="#fff"/><path d="M934.34 413.5c-9.78.47-18.1-7.27-18.6-17.32-.53-10.1 6.94-18.7 16.7-19.3 9.8-.6 18.18 7.05 18.82 17.13l-7.04.5c-.4-6.1-5.44-10.72-11.34-10.35-5.9.33-10.42 5.53-10.1 11.62.3 6.1 5.34 10.75 11.24 10.5z" stroke="#000" stroke-opacity="0" stroke-width="3.77" fill="#fff"/><path d="M938 394.02l5.58 14.1 12.9-14.1z" stroke="#000" stroke-opacity="0" stroke-width="3.77" fill="#fff"/><use xlink:href="#k" transform="matrix(1,0,0,1,870,442.9) translate(32.00617283950618 14.222222222222221)"/><path d="M1115.9 83.6c-.7.07-1.24.2-1.78.48l-23.74 11.7c-1.3.6-2.2 1.7-2.46 3.15l-5.88 26.33c-.27 1.23-.07 2.46.6 3.55.08.15.15.22.3.35l16.4 21.07c.9 1.16 2.12 1.78 3.56 1.78h26.4c1.44 0 2.67-.62 3.56-1.78l16.4-21.07c.9-1.16 1.24-2.53.9-3.96l-5.88-26.27c-.28-1.44-1.16-2.54-2.46-3.15l-23.74-11.7c-.75-.34-1.43-.54-2.2-.47z" stroke="#000" stroke-opacity="0" stroke-width="3.83" fill="#326ce5"/><path d="M1115.88 81.7c-.72.07-1.3.22-1.87.5l-25.05 12.35c-1.37.65-2.3 1.8-2.6 3.32l-6.2 27.8c-.3 1.3-.08 2.6.64 3.75.07.15.14.22.28.37L1098.4 152c.95 1.23 2.25 1.88 3.77 1.88h27.86c1.52 0 2.82-.65 3.76-1.88l17.32-22.23c.94-1.24 1.3-2.7.94-4.13l-6.2-27.8c-.3-1.5-1.24-2.67-2.6-3.32l-25.07-12.34c-.8-.36-1.52-.57-2.32-.5zm0 1.95c.8-.07 1.45.07 2.17.43l23.83 11.7c1.22.65 2.1 1.73 2.45 3.18l5.85 26.28c.3 1.44 0 2.74-.87 3.9l-16.45 21.08c-.87 1.15-2.1 1.8-3.54 1.8h-26.4c-1.46 0-2.68-.65-3.55-1.8l-16.46-21.08c-.08-.08-.16-.22-.23-.37-.72-1.08-.94-2.23-.65-3.53l5.85-26.28c.36-1.45 1.16-2.53 2.45-3.18l23.83-11.7c.58-.3 1.08-.43 1.73-.5z" stroke="#000" stroke-opacity="0" stroke-width="3.83" fill="#fff"/><path d="M1109.94 143.1c0 .83.13 1.43.38 1.83.25.4.63.6 1.13.6.35 0 .65-.1.88-.3.24-.2.4-.5.44-.92l1 .08c-.07.6-.32 1.07-.73 1.42-.4.35-.93.53-1.56.53-.84 0-1.48-.27-1.92-.8-.43-.56-.65-1.35-.65-2.4 0-1.03.23-1.82.67-2.37.44-.54 1.07-.8 1.9-.8.6 0 1.1.15 1.5.48.42.32.67.77.77 1.34l-1.02.08c-.05-.34-.18-.6-.4-.8-.2-.2-.5-.3-.88-.3-.53 0-.9.17-1.15.53-.24.35-.36.96-.36 1.8zM1114.86 146.22v-4.72c0-.43 0-.9-.04-1.44h.94l.05 1.26h.03c.15-.52.34-.9.54-1.08.2-.2.5-.3.87-.3.14 0 .27.03.4.07v.95c-.13-.04-.3-.06-.52-.06-.4 0-.73.17-.94.54-.22.36-.33.88-.33 1.57v3.22zM1122.37 145.23c-.18.4-.42.67-.73.84-.3.17-.68.26-1.12.26-.76 0-1.32-.27-1.67-.8-.35-.5-.53-1.3-.53-2.37 0-2.14.73-3.2 2.2-3.2.45 0 .82.07 1.13.25.3.18.54.45.72.82v-3.24h1v7.16c0 .64 0 1.07.03 1.28h-.95l-.03-.43c0-.22-.03-.4-.03-.57zm-3-2.1c0 .86.1 1.48.32 1.85.22.37.57.56 1.07.56.56 0 .97-.2 1.22-.6.25-.4.37-1.03.37-1.88 0-.8-.12-1.4-.38-1.8-.26-.36-.66-.56-1.22-.56-.5 0-.86.2-1.1.58-.2.38-.32 1-.32 1.85z" stroke="#000" stroke-opacity="0" fill="#fff"/><path d="M1133.15 113.06h-2.76v-7.6c0-2.12-1.67-3.84-3.73-3.84h-7.38v-2.84c0-2.64-2.1-4.76-4.63-4.76-2.56 0-4.62 2.12-4.62 4.76v2.84h-7.4c-2.03 0-3.7 1.72-3.7 3.84v7.24h2.76c2.77 0 5.02 2.28 5.02 5.12 0 2.84-2.25 5.16-5 5.16h-2.77v7.25c0 2.08 1.67 3.8 3.7 3.8h7.02v-2.84c0-2.85 2.25-5.17 5-5.17 2.76 0 4.97 2.32 4.97 5.16v2.83h7.03c2.06 0 3.72-1.72 3.72-3.8v-7.65h2.75c2.56 0 4.62-2.12 4.62-4.76 0-2.6-2.06-4.76-4.62-4.76z" stroke="#000" stroke-opacity="0" stroke-width="1.74" fill="#fff"/><use xlink:href="#l" transform="matrix(1,0,0,1,1050,162.9) translate(7.3888888888889 14.222222222222221)"/><use xlink:href="#m" transform="matrix(1,0,0,1,1050,162.9) translate(87.24074074074073 14.222222222222221)"/><path d="M1115.9 363.6c-.7.07-1.24.2-1.78.48l-23.74 11.7c-1.3.6-2.2 1.7-2.46 3.15l-5.88 26.33c-.27 1.23-.07 2.46.6 3.55.08.15.15.22.3.35l16.4 21.07c.9 1.16 2.12 1.78 3.56 1.78h26.4c1.44 0 2.67-.62 3.56-1.78l16.4-21.07c.9-1.16 1.24-2.53.9-3.96l-5.88-26.27c-.28-1.44-1.16-2.54-2.46-3.15l-23.74-11.7c-.75-.34-1.43-.54-2.2-.47z" stroke="#000" stroke-opacity="0" stroke-width="3.83" fill="#326ce5"/><path d="M1115.88 361.7c-.72.07-1.3.22-1.87.5l-25.05 12.35c-1.37.65-2.3 1.8-2.6 3.32l-6.2 27.8c-.3 1.3-.08 2.6.64 3.75.07.15.14.22.28.37L1098.4 432c.95 1.23 2.25 1.88 3.77 1.88h27.86c1.52 0 2.82-.65 3.76-1.88l17.32-22.23c.94-1.24 1.3-2.7.94-4.13l-6.2-27.8c-.3-1.5-1.24-2.67-2.6-3.32l-25.07-12.34c-.8-.36-1.52-.57-2.32-.5zm0 1.95c.8-.07 1.45.07 2.17.43l23.83 11.7c1.22.65 2.1 1.73 2.45 3.18l5.85 26.28c.3 1.44 0 2.74-.87 3.9l-16.45 21.08c-.87 1.15-2.1 1.8-3.54 1.8h-26.4c-1.46 0-2.68-.65-3.55-1.8l-16.46-21.08c-.08-.08-.16-.22-.23-.37-.72-1.08-.94-2.23-.65-3.53l5.85-26.28c.36-1.45 1.16-2.53 2.45-3.18l23.83-11.7c.58-.3 1.08-.43 1.73-.5z" stroke="#000" stroke-opacity="0" stroke-width="3.83" fill="#fff"/><path d="M1109.94 423.1c0 .83.13 1.43.38 1.83.25.4.63.6 1.13.6.35 0 .65-.1.88-.3.24-.2.4-.5.44-.92l1 .08c-.07.6-.32 1.07-.73 1.42-.4.35-.93.53-1.56.53-.84 0-1.48-.27-1.92-.8-.43-.56-.65-1.35-.65-2.4 0-1.03.23-1.82.67-2.37.44-.54 1.07-.8 1.9-.8.6 0 1.1.15 1.5.48.42.32.67.77.77 1.34l-1.02.08c-.05-.34-.18-.6-.4-.8-.2-.2-.5-.3-.88-.3-.53 0-.9.17-1.15.53-.24.35-.36.96-.36 1.8zM1114.86 426.22v-4.72c0-.43 0-.9-.04-1.44h.94l.05 1.26h.03c.15-.52.34-.9.54-1.08.2-.2.5-.3.87-.3.14 0 .27.03.4.07v.95c-.13-.04-.3-.06-.52-.06-.4 0-.73.17-.94.54-.22.36-.33.88-.33 1.57v3.22zM1122.37 425.23c-.18.4-.42.67-.73.84-.3.17-.68.26-1.12.26-.76 0-1.32-.27-1.67-.8-.35-.5-.53-1.3-.53-2.37 0-2.14.73-3.2 2.2-3.2.45 0 .82.07 1.13.25.3.18.54.45.72.82v-3.24h1v7.16c0 .64 0 1.07.03 1.28h-.95l-.03-.43c0-.22-.03-.4-.03-.57zm-3-2.1c0 .86.1 1.48.32 1.85.22.37.57.56 1.07.56.56 0 .97-.2 1.22-.6.25-.4.37-1.03.37-1.88 0-.8-.12-1.4-.38-1.8-.26-.36-.66-.56-1.22-.56-.5 0-.86.2-1.1.58-.2.38-.32 1-.32 1.85z" stroke="#000" stroke-opacity="0" fill="#fff"/><path d="M1133.15 393.06h-2.76v-7.6c0-2.12-1.67-3.84-3.73-3.84h-7.38v-2.84c0-2.64-2.1-4.76-4.63-4.76-2.56 0-4.62 2.12-4.62 4.76v2.84h-7.4c-2.03 0-3.7 1.72-3.7 3.84v7.24h2.76c2.77 0 5.02 2.28 5.02 5.12 0 2.84-2.25 5.16-5 5.16h-2.77v7.25c0 2.08 1.67 3.8 3.7 3.8h7.02v-2.84c0-2.85 2.25-5.17 5-5.17 2.76 0 4.97 2.32 4.97 5.16v2.83h7.03c2.06 0 3.72-1.72 3.72-3.8v-7.65h2.75c2.56 0 4.62-2.12 4.62-4.76 0-2.6-2.06-4.76-4.62-4.76z" stroke="#000" stroke-opacity="0" stroke-width="1.74" fill="#fff"/><use xlink:href="#l" transform="matrix(1,0,0,1,1050,442.9) translate(7.3888888888889 14.222222222222221)"/><use xlink:href="#m" transform="matrix(1,0,0,1,1050,442.9) translate(87.24074074074073 14.222222222222221)"/><path d="M983.7 118.8h-12.4v-2h12.4zm79.7 0h-24.48v-2h24.48z" stroke="#5e5e5e" stroke-width=".05" fill="#5e5e5e"/><path d="M971.32 118.8h-.8l-.45-2h1.25z" fill="#5e5e5e"/><path d="M971.35 118.83h-.85l-.46-2.05h1.3zm-1.24-2l.44 1.95h.76v-1.95z" stroke="#5e5e5e" stroke-width=".05" fill="#5e5e5e"/><path d="M1078.67 117.8l-14.27 4.64v-9.28z" fill="#5e5e5e"/><path d="M1081.9 117.8l-18.5 6v-12zm-16.5 3.26l10.03-3.26-10.03-3.26z" stroke="#5e5e5e" stroke-width=".05" fill="#5e5e5e"/><use xlink:href="#n" transform="matrix(1,0,0,1,983.710318367411,107.13333333333333) translate(0 14.222222222222223)"/><path d="M990.3 398.8h-19v-2h19zm73.1 0h-17.9v-2h17.9z" stroke="#5e5e5e" stroke-width=".05" fill="#5e5e5e"/><path d="M971.32 398.8h-.8l-.45-2h1.25z" fill="#5e5e5e"/><path d="M971.35 398.82h-.85l-.46-2.05h1.3zm-1.24-2l.44 1.95h.76v-1.94z" stroke="#5e5e5e" stroke-width=".05" fill="#5e5e5e"/><path d="M1078.67 397.8l-14.27 4.64v-9.28z" fill="#5e5e5e"/><path d="M1081.9 397.8l-18.5 6v-12zm-16.5 3.26l10.03-3.26-10.03-3.26z" stroke="#5e5e5e" stroke-width=".05" fill="#5e5e5e"/><use xlink:href="#n" transform="matrix(1,0,0,1,990.3010767379767,387.1333333333333) translate(0 14.222222222222223)"/><path d="M1539.9 21.06c-.4.03-.7.1-1 .26l-13.15 6.48c-.72.34-1.2.95-1.36 1.74l-3.27 14.6c-.15.67-.04 1.35.34 1.96.04.08.08.1.15.2l9.1 11.66c.5.64 1.17 1 1.97 1h14.6c.8 0 1.5-.36 1.98-1l9.1-11.67c.5-.65.68-1.4.5-2.2l-3.27-14.56c-.14-.8-.63-1.4-1.35-1.74l-13.15-6.48c-.42-.2-.8-.3-1.2-.26z" stroke="#000" stroke-opacity="0" stroke-width="3.83" fill="#326ce5"/><path d="M1539.88 20c-.4.04-.72.12-1.04.28l-13.88 6.84c-.76.36-1.28 1-1.44 1.84l-3.44 15.4c-.16.72-.04 1.44.36 2.08.04.08.08.12.16.2l9.6 12.32c.52.68 1.24 1.04 2.08 1.04h15.44c.84 0 1.56-.36 2.08-1.04l9.6-12.32c.52-.68.72-1.48.52-2.28l-3.44-15.4c-.16-.84-.68-1.48-1.44-1.84l-13.88-6.84c-.44-.2-.84-.32-1.28-.28zm0 1.08c.44-.04.8.04 1.2.24l13.2 6.48c.68.36 1.16.96 1.36 1.76l3.24 14.56c.16.8 0 1.52-.48 2.16l-9.12 11.68c-.48.64-1.16 1-1.96 1h-14.64c-.8 0-1.48-.36-1.96-1l-9.12-11.68c-.04-.04-.08-.12-.12-.2-.4-.6-.52-1.24-.36-1.96l3.24-14.56c.2-.8.64-1.4 1.36-1.76l13.2-6.48c.32-.16.6-.24.96-.28z" stroke="#000" stroke-opacity="0" stroke-width="3.83" fill="#fff"/><path d="M1538 54.02c0 1.2-.4 1.8-1.2 1.8-.52 0-.86-.2-1.03-.6h-.02v1.86h-.54v-4.05-.7h.53v.1c0 .05 0 .12.02.23v.22h.02c.1-.2.23-.36.4-.46.15-.1.36-.15.62-.15.4 0 .7.14.9.43.2.28.3.72.3 1.32zm-.57 0c0-.46-.06-.8-.18-1-.13-.2-.33-.3-.6-.3-.22 0-.4.04-.5.13-.13.1-.23.25-.3.45-.06.2-.1.46-.1.78 0 .45.08.77.22 1 .14.2.36.3.68.3.27 0 .47-.1.6-.3.12-.2.18-.56.18-1.05zM1541.5 54.03c0 .6-.14 1.05-.4 1.34-.24.3-.62.44-1.1.44-.48 0-.85-.15-1.1-.45-.24-.3-.36-.74-.36-1.32 0-1.17.5-1.76 1.48-1.76.5 0 .88.15 1.1.43.25.3.37.73.37 1.33zm-.58 0c0-.47-.08-.8-.2-1.02-.14-.2-.37-.3-.7-.3-.3 0-.55.1-.7.32-.13.2-.2.55-.2 1 0 .46.06.8.2 1.03.15.23.37.33.67.33.32 0 .56-.1.7-.32.14-.22.22-.56.22-1.03zM1544.27 55.2c-.1.2-.24.37-.4.46-.18.1-.4.14-.63.14-.42 0-.73-.14-.93-.43-.18-.3-.28-.73-.28-1.32 0-1.2.4-1.78 1.22-1.78.25 0 .45.05.62.14.17.1.3.26.4.46V51.08h.55v3.96c0 .35.02.6.03.7h-.52v-.23c-.02-.1-.02-.22-.02-.3zm-1.67-1.17c0 .48.06.82.18 1.03.12.2.32.3.6.3.3 0 .53-.1.67-.33.15-.22.22-.57.22-1.03 0-.45-.07-.8-.22-1-.14-.2-.36-.3-.67-.3-.27 0-.47.1-.6.3-.12.22-.18.56-.18 1.03z" stroke="#000" stroke-opacity="0" fill="#fff"/><path d="M1531.97 33.4L1540 31l8.03 2.4-8.03 2.4zM1531.97 34.32v8.8l7.48 4.27.04-10.78zM1548.03 34.32v8.8l-7.48 4.27-.04-10.78z" stroke="#000" stroke-opacity="0" stroke-width="3.77" fill="#fff"/><use xlink:href="#o" transform="matrix(1,0,0,1,1490,69) translate(33.25925925925926 14.222222222222221)"/><path d="M1539.9 101.06c-.4.03-.7.1-1 .26l-13.15 6.48c-.72.34-1.2.95-1.36 1.74l-3.27 14.6c-.15.67-.04 1.35.34 1.96.04.08.08.1.15.2l9.1 11.66c.5.64 1.17 1 1.97 1h14.6c.8 0 1.5-.36 1.98-1l9.1-11.67c.5-.65.68-1.4.5-2.2l-3.27-14.56c-.14-.8-.63-1.4-1.35-1.74l-13.15-6.48c-.42-.2-.8-.3-1.2-.26z" stroke="#000" stroke-opacity="0" stroke-width="3.83" fill="#326ce5"/><path d="M1539.88 100c-.4.04-.72.12-1.04.28l-13.88 6.84c-.76.36-1.28 1-1.44 1.84l-3.44 15.4c-.16.72-.04 1.44.36 2.08.04.08.08.12.16.2l9.6 12.32c.52.68 1.24 1.04 2.08 1.04h15.44c.84 0 1.56-.36 2.08-1.04l9.6-12.32c.52-.68.72-1.48.52-2.28l-3.44-15.4c-.16-.84-.68-1.48-1.44-1.84l-13.88-6.84c-.44-.2-.84-.32-1.28-.28zm0 1.08c.44-.04.8.04 1.2.24l13.2 6.48c.68.36 1.16.96 1.36 1.76l3.24 14.56c.16.8 0 1.52-.48 2.16l-9.12 11.68c-.48.64-1.16 1-1.96 1h-14.64c-.8 0-1.48-.36-1.96-1l-9.12-11.68c-.04-.04-.08-.12-.12-.2-.4-.6-.52-1.24-.36-1.96l3.24-14.56c.2-.8.64-1.4 1.36-1.76l13.2-6.48c.32-.16.6-.24.96-.28z" stroke="#000" stroke-opacity="0" stroke-width="3.83" fill="#fff"/><path d="M1533.2 135.2c-.1.2-.23.37-.4.46-.17.1-.38.14-.63.14-.4 0-.72-.14-.92-.43-.2-.3-.3-.73-.3-1.32 0-1.2.4-1.78 1.22-1.78.25 0 .46.05.63.14.17.1.3.26.4.46V131.08h.55v3.96c0 .35 0 .6.02.7h-.53l-.02-.23v-.3zm-1.67-1.17c0 .48.07.82.2 1.03.1.2.3.3.58.3.33 0 .55-.1.7-.33.13-.22.2-.57.2-1.03 0-.45-.07-.8-.2-1-.15-.2-.37-.3-.68-.3-.28 0-.48.1-.6.3-.12.22-.2.56-.2 1.03zM1535.02 134.16c0 .4.08.7.24.9.15.22.38.32.68.32.24 0 .43-.05.58-.15.14-.1.24-.22.3-.37l.47.14c-.2.54-.66.8-1.36.8-.5 0-.86-.14-1.12-.44-.25-.3-.38-.75-.38-1.34 0-.56.13-1 .38-1.3.26-.3.63-.45 1.1-.45.97 0 1.46.6 1.46 1.8v.1zm1.8-.44c-.04-.36-.13-.62-.28-.78-.14-.17-.35-.25-.63-.25-.25 0-.47.08-.62.27-.16.18-.24.43-.25.75zM1540.88 134.02c0 1.2-.4 1.8-1.22 1.8-.5 0-.85-.2-1.03-.6v1.86h-.55v-4.05c0-.35 0-.58-.02-.7h.54v.1c0 .05 0 .12.02.23v.22h.02c.1-.2.23-.36.4-.46.15-.1.36-.15.62-.15.4 0 .7.14.9.43.22.28.32.72.32 1.32zm-.58 0c0-.46-.06-.8-.18-1-.13-.2-.33-.3-.6-.3-.22 0-.4.04-.5.13-.13.1-.23.25-.3.45-.06.2-.1.46-.1.78 0 .45.08.77.22 1 .14.2.36.3.68.3.27 0 .47-.1.6-.3.12-.2.18-.56.18-1.05zM1541.57 135.74v-4.67h.55v4.67zM1545.75 134.03c0 .6-.12 1.05-.38 1.34-.25.3-.62.44-1.1.44-.5 0-.85-.15-1.1-.45-.25-.3-.37-.74-.37-1.32 0-1.17.5-1.76 1.48-1.76.5 0 .88.15 1.12.43.24.3.35.73.35 1.33zm-.57 0c0-.47-.07-.8-.2-1.02-.14-.2-.37-.3-.7-.3-.3 0-.54.1-.7.32-.13.2-.2.55-.2 1 0 .46.07.8.2 1.03.15.23.37.33.68.33.33 0 .56-.1.7-.32.14-.22.22-.56.22-1.03zM1546.6 137.08c-.15 0-.27 0-.38-.03v-.43l.26.02c.34 0 .6-.26.8-.78l.07-.13-1.32-3.4h.6l.7 1.9c0 .02 0 .05.03.1l.13.4c.07.24.1.37.12.4l.2-.63.74-2.17h.58l-1.28 3.4c-.13.38-.26.64-.38.82-.12.18-.25.3-.4.4-.13.1-.3.13-.48.13z" stroke="#000" stroke-opacity="0" fill="#fff"/><path d="M1539.02 128.7c-5.4.26-10.02-4.03-10.3-9.6-.3-5.6 3.84-10.36 9.26-10.7 5.42-.3 10.06 3.9 10.42 9.5l-3.9.27c-.22-3.38-3-5.94-6.28-5.73-3.27.18-5.77 3.06-5.6 6.44.16 3.37 2.96 5.95 6.23 5.8z" stroke="#000" stroke-opacity="0" stroke-width="3.77" fill="#fff"/><path d="M1541.05 117.9l3.1 7.83 7.15-7.82z" stroke="#000" stroke-opacity="0" stroke-width="3.77" fill="#fff"/><use xlink:href="#p" transform="matrix(1,0,0,1,1490,149) translate(33.25925925925926 14.222222222222221)"/><path d="M1539.9 324.96c-.4.03-.7.1-1 .26l-13.15 6.48c-.72.34-1.2.95-1.36 1.74l-3.27 14.6c-.15.67-.04 1.35.34 1.96.04.08.08.1.15.2l9.1 11.66c.5.64 1.17 1 1.97 1h14.6c.8 0 1.5-.36 1.98-1l9.1-11.67c.5-.65.68-1.4.5-2.2l-3.27-14.56c-.14-.8-.63-1.4-1.35-1.74l-13.15-6.48c-.42-.2-.8-.3-1.2-.26z" stroke="#000" stroke-opacity="0" stroke-width="3.83" fill="#326ce5"/><path d="M1539.88 323.9c-.4.04-.72.12-1.04.28l-13.88 6.84c-.76.36-1.28 1-1.44 1.84l-3.44 15.4c-.16.72-.04 1.44.36 2.08.04.08.08.12.16.2l9.6 12.32c.52.68 1.24 1.04 2.08 1.04h15.44c.84 0 1.56-.36 2.08-1.04l9.6-12.32c.52-.68.72-1.48.52-2.28l-3.44-15.4c-.16-.84-.68-1.48-1.44-1.84l-13.88-6.84c-.44-.2-.84-.32-1.28-.28zm0 1.08c.44-.04.8.04 1.2.24l13.2 6.48c.68.36 1.16.96 1.36 1.76l3.24 14.56c.16.8 0 1.52-.48 2.16l-9.12 11.68c-.48.64-1.16 1-1.96 1h-14.64c-.8 0-1.48-.36-1.96-1l-9.12-11.68c-.04-.04-.08-.12-.12-.2-.4-.6-.52-1.24-.36-1.96l3.24-14.56c.2-.8.64-1.4 1.36-1.76l13.2-6.48c.32-.16.6-.24.96-.28z" stroke="#000" stroke-opacity="0" stroke-width="3.83" fill="#fff"/><path d="M1538 357.92c0 1.2-.4 1.8-1.2 1.8-.52 0-.86-.2-1.03-.6h-.02v1.86h-.54v-4.05-.7h.53v.1c0 .05 0 .12.02.23v.22h.02c.1-.2.23-.36.4-.46.15-.1.36-.15.62-.15.4 0 .7.14.9.43.2.28.3.72.3 1.32zm-.57 0c0-.46-.06-.8-.18-1-.13-.2-.33-.3-.6-.3-.22 0-.4.04-.5.13-.13.1-.23.25-.3.45-.06.2-.1.46-.1.78 0 .45.08.77.22 1 .14.2.36.3.68.3.27 0 .47-.1.6-.3.12-.2.18-.56.18-1.05zM1541.5 357.93c0 .6-.14 1.05-.4 1.34-.24.3-.62.44-1.1.44-.48 0-.85-.15-1.1-.45-.24-.3-.36-.74-.36-1.32 0-1.17.5-1.76 1.48-1.76.5 0 .88.15 1.1.43.25.3.37.73.37 1.33zm-.58 0c0-.47-.08-.8-.2-1.02-.14-.2-.37-.3-.7-.3-.3 0-.55.1-.7.32-.13.2-.2.55-.2 1 0 .46.06.8.2 1.03.15.23.37.33.67.33.32 0 .56-.1.7-.32.14-.22.22-.56.22-1.03zM1544.27 359.1c-.1.2-.24.37-.4.46-.18.1-.4.14-.63.14-.42 0-.73-.14-.93-.43-.18-.3-.28-.73-.28-1.32 0-1.2.4-1.78 1.22-1.78.25 0 .45.05.62.14.17.1.3.26.4.46V354.98h.55v3.96c0 .35.02.6.03.7h-.52v-.23c-.02-.1-.02-.22-.02-.3zm-1.67-1.17c0 .48.06.82.18 1.03.12.2.32.3.6.3.3 0 .53-.1.67-.33.15-.22.22-.57.22-1.03 0-.45-.07-.8-.22-1-.14-.2-.36-.3-.67-.3-.27 0-.47.1-.6.3-.12.22-.18.56-.18 1.03z" stroke="#000" stroke-opacity="0" fill="#fff"/><path d="M1531.97 337.3l8.03-2.4 8.03 2.4-8.03 2.4zM1531.97 338.22v8.8l7.48 4.27.04-10.78zM1548.03 338.22v8.8l-7.48 4.27-.04-10.78z" stroke="#000" stroke-opacity="0" stroke-width="3.77" fill="#fff"/><use xlink:href="#o" transform="matrix(1,0,0,1,1490,372.9) translate(33.25925925925926 14.222222222222221)"/><path d="M1539.9 404.96c-.4.03-.7.1-1 .26l-13.15 6.48c-.72.34-1.2.95-1.36 1.74l-3.27 14.6c-.15.67-.04 1.35.34 1.96.04.08.08.1.15.2l9.1 11.66c.5.64 1.17 1 1.97 1h14.6c.8 0 1.5-.36 1.98-1l9.1-11.67c.5-.65.68-1.4.5-2.2l-3.27-14.56c-.14-.8-.63-1.4-1.35-1.74l-13.15-6.48c-.42-.2-.8-.3-1.2-.26z" stroke="#000" stroke-opacity="0" stroke-width="3.83" fill="#326ce5"/><path d="M1539.88 403.9c-.4.04-.72.12-1.04.28l-13.88 6.84c-.76.36-1.28 1-1.44 1.84l-3.44 15.4c-.16.72-.04 1.44.36 2.08.04.08.08.12.16.2l9.6 12.32c.52.68 1.24 1.04 2.08 1.04h15.44c.84 0 1.56-.36 2.08-1.04l9.6-12.32c.52-.68.72-1.48.52-2.28l-3.44-15.4c-.16-.84-.68-1.48-1.44-1.84l-13.88-6.84c-.44-.2-.84-.32-1.28-.28zm0 1.08c.44-.04.8.04 1.2.24l13.2 6.48c.68.36 1.16.96 1.36 1.76l3.24 14.56c.16.8 0 1.52-.48 2.16l-9.12 11.68c-.48.64-1.16 1-1.96 1h-14.64c-.8 0-1.48-.36-1.96-1l-9.12-11.68c-.04-.04-.08-.12-.12-.2-.4-.6-.52-1.24-.36-1.96l3.24-14.56c.2-.8.64-1.4 1.36-1.76l13.2-6.48c.32-.16.6-.24.96-.28z" stroke="#000" stroke-opacity="0" stroke-width="3.83" fill="#fff"/><path d="M1533.2 439.1c-.1.2-.23.37-.4.46-.17.1-.38.14-.63.14-.4 0-.72-.14-.92-.43-.2-.3-.3-.73-.3-1.32 0-1.2.4-1.78 1.22-1.78.25 0 .46.05.63.14.17.1.3.26.4.46V434.98h.55v3.96c0 .35 0 .6.02.7h-.53l-.02-.23v-.3zm-1.67-1.17c0 .48.07.82.2 1.03.1.2.3.3.58.3.33 0 .55-.1.7-.33.13-.22.2-.57.2-1.03 0-.45-.07-.8-.2-1-.15-.2-.37-.3-.68-.3-.28 0-.48.1-.6.3-.12.22-.2.56-.2 1.03zM1535.02 438.06c0 .4.08.7.24.9.15.22.38.32.68.32.24 0 .43-.05.58-.15.14-.1.24-.22.3-.37l.47.14c-.2.54-.66.8-1.36.8-.5 0-.86-.14-1.12-.44-.25-.3-.38-.75-.38-1.34 0-.56.13-1 .38-1.3.26-.3.63-.45 1.1-.45.97 0 1.46.6 1.46 1.8v.1zm1.8-.44c-.04-.36-.13-.62-.28-.78-.14-.17-.35-.25-.63-.25-.25 0-.47.08-.62.27-.16.18-.24.43-.25.75zM1540.88 437.92c0 1.2-.4 1.8-1.22 1.8-.5 0-.85-.2-1.03-.6v1.86h-.55v-4.05c0-.35 0-.58-.02-.7h.54v.1c0 .05 0 .12.02.23v.22h.02c.1-.2.23-.36.4-.46.15-.1.36-.15.62-.15.4 0 .7.14.9.43.22.28.32.72.32 1.32zm-.58 0c0-.46-.06-.8-.18-1-.13-.2-.33-.3-.6-.3-.22 0-.4.04-.5.13-.13.1-.23.25-.3.45-.06.2-.1.46-.1.78 0 .45.08.77.22 1 .14.2.36.3.68.3.27 0 .47-.1.6-.3.12-.2.18-.56.18-1.05zM1541.57 439.64v-4.67h.55v4.67zM1545.75 437.93c0 .6-.12 1.05-.38 1.34-.25.3-.62.44-1.1.44-.5 0-.85-.15-1.1-.45-.25-.3-.37-.74-.37-1.32 0-1.17.5-1.76 1.48-1.76.5 0 .88.15 1.12.43.24.3.35.73.35 1.33zm-.57 0c0-.47-.07-.8-.2-1.02-.14-.2-.37-.3-.7-.3-.3 0-.54.1-.7.32-.13.2-.2.55-.2 1 0 .46.07.8.2 1.03.15.23.37.33.68.33.33 0 .56-.1.7-.32.14-.22.22-.56.22-1.03zM1546.6 440.98c-.15 0-.27 0-.38-.03v-.43l.26.02c.34 0 .6-.26.8-.78l.07-.13-1.32-3.4h.6l.7 1.9c0 .02 0 .05.03.1l.13.4c.07.24.1.37.12.4l.2-.63.74-2.17h.58l-1.28 3.4c-.13.38-.26.64-.38.82-.12.18-.25.3-.4.4-.13.1-.3.13-.48.13z" stroke="#000" stroke-opacity="0" fill="#fff"/><path d="M1539.02 432.6c-5.4.26-10.02-4.03-10.3-9.6-.3-5.6 3.84-10.36 9.26-10.7 5.42-.3 10.06 3.9 10.42 9.5l-3.9.27c-.22-3.38-3-5.94-6.28-5.73-3.27.18-5.77 3.06-5.6 6.44.16 3.37 2.96 5.95 6.23 5.8z" stroke="#000" stroke-opacity="0" stroke-width="3.77" fill="#fff"/><path d="M1541.05 421.8l3.1 7.83 7.15-7.82z" stroke="#000" stroke-opacity="0" stroke-width="3.77" fill="#fff"/><use xlink:href="#p" transform="matrix(1,0,0,1,1490,452.9) translate(33.25925925925926 14.222222222222221)"/><path d="M1292.3 97.1l-15.55 5.05-14.53 4.06-14.6 3.43-15.33 2.92-16.66 2.45-18.6 1.95-21.4 1.34-24.32.48-.04-2 24.27-.5 21.32-1.32 18.52-1.94 16.56-2.44 15.24-2.9 14.52-3.4 14.45-4.05 15.46-5.03 14.46-5.4h5.7zm210.28-55.72l-6.78.13-21.3 1.34-18.54 1.94-16.56 2.44-15.25 2.9-14.52 3.4-14.45 4.05-15.44 5.03-14.65 5.86h-5.4l19.35-7.75 15.56-5.05 14.54-4.06 14.6-3.43 15.32-2.92 16.65-2.45 18.62-1.95 21.4-1.34 6.82-.12z" stroke="#5e5e5e" stroke-width=".05" fill="#5e5e5e"/><path d="M1151.35 118.78l-.83.02-.44-2 1.23-.02z" fill="#5e5e5e"/><path d="M1151.37 118.8l-.87.02-.46-2.04 1.3-.03zm-1.26-1.97l.44 1.94.78-.02-.04-1.95z" stroke="#5e5e5e" stroke-width=".05" fill="#5e5e5e"/><path d="M1517.82 40.07L1503.65 45l-.2-9.28z" fill="#5e5e5e"/><path d="M1521.05 40l-18.37 6.4-.25-12.03zm-16.43 3.6l9.96-3.47-10.1-3.05z" stroke="#5e5e5e" stroke-width=".05" fill="#5e5e5e"/><use xlink:href="#q" transform="matrix(1,0,0,1,1294.039049715727,68.46244102734245) translate(0 14.222222222222223)"/><path d="M1294.04 381.86h5.77l-21.55 5.08-20.2 3.85-21 3.1-23.57 2.45-28 1.74-34.16.68-.04-2 34.13-.68 27.92-1.74 23.47-2.46 20.9-3.08 20.13-3.84 16.2-3.82zm208.54-36.6l-16.64.34-27.9 1.74-23.47 2.46-20.93 3.08-20.1 3.84-16.05 4.3v-.5h-5.87l21.46-5.75 20.2-3.86 21.02-3.1 23.55-2.45 28-1.74 16.67-.33z" stroke="#5e5e5e" stroke-width=".05" fill="#5e5e5e"/><path d="M1151.35 398.78l-.83.02-.44-2 1.23-.02z" fill="#5e5e5e"/><path d="M1151.37 398.8l-.87.02-.46-2.04 1.3-.03zm-1.26-1.97l.44 1.94.78-.02-.04-1.94z" stroke="#5e5e5e" stroke-width=".05" fill="#5e5e5e"/><path d="M1517.82 343.96l-14.17 4.93-.2-9.28z" fill="#5e5e5e"/><path d="M1521.05 343.9l-18.37 6.38-.24-12.02zm-16.43 3.6l9.96-3.47-10.1-3.06z" stroke="#5e5e5e" stroke-width=".05" fill="#5e5e5e"/><use xlink:href="#q" transform="matrix(1,0,0,1,1294.0371642088814,360.52829856795586) translate(0 14.222222222222223)"/><path d="M1502.56 118.9v2l-143.67-.86v-2zm-190.1-1.14v2l-161.16-.95v-2z" stroke="#5e5e5e" stroke-width=".05" fill="#5e5e5e"/><path d="M1151.33 116.8v2h-.8l-.46-2z" fill="#5e5e5e"/><path d="M1151.36 116.78v2.05h-.86l-.46-2.06zm-.82 2h.76v-1.95h-1.2z" stroke="#5e5e5e" stroke-width=".05" fill="#5e5e5e"/><path d="M1517.82 119.98l-14.3 4.55.06-9.27z" fill="#5e5e5e"/><path d="M1521.05 120l-18.53 5.9.07-12.02zm-16.52 3.16l10.05-3.2-10-3.32z" stroke="#5e5e5e" stroke-width=".05" fill="#5e5e5e"/><use xlink:href="#r" transform="matrix(1,0,0,1,1312.4687004645057,108.23333333366332) translate(0 14.222222222222223)"/><path d="M1411.56 418.87l44.9 2.78 46.1.9-.02 2-46.17-.9-45-2.8-52.44-6.5v-2zM1215 398.05l44.97 2.8 42.9 4.53 9.64 1.2v2.02l-9.87-1.23-42.83-4.54-44.9-2.78-63.62-1.23.04-2z" stroke="#5e5e5e" stroke-width=".05" fill="#5e5e5e"/><path d="M1151.35 396.82l-.04 2-.78-.02-.45-2z" fill="#5e5e5e"/><path d="M1151.37 396.8l-.04 2.05-.83-.02-.46-2.06zm-.83 1.98h.74l.04-1.94-1.22-.02z" stroke="#5e5e5e" stroke-width=".05" fill="#5e5e5e"/><path d="M1517.82 423.84l-14.35 4.36.17-9.27z" fill="#5e5e5e"/><path d="M1521.05 423.9l-18.6 5.65.22-12.02zm-16.56 2.94l10.08-3.06-9.96-3.46z" stroke="#5e5e5e" stroke-width=".05" fill="#5e5e5e"/><use xlink:href="#r" transform="matrix(1,0,0,1,1312.512637139236,399.8013324692117) translate(0 14.222222222222223)"/><path d="M1419.9 16.66c-.4.03-.7.1-1 .26l-13.15 6.48c-.72.34-1.2.95-1.36 1.74l-3.27 14.6c-.15.67-.04 1.35.34 1.96.04.08.08.1.15.2l9.1 11.66c.5.64 1.17 1 1.97 1h14.6c.8 0 1.5-.36 1.98-1l9.1-11.67c.5-.65.68-1.4.5-2.2l-3.27-14.56c-.14-.8-.63-1.4-1.35-1.74l-13.15-6.48c-.42-.2-.8-.3-1.2-.26z" stroke="#000" stroke-opacity="0" stroke-width="3.83" fill="#326ce5"/><path d="M1419.88 15.6c-.4.04-.72.12-1.04.28l-13.88 6.84c-.76.36-1.28 1-1.44 1.84l-3.44 15.4c-.16.72-.04 1.44.36 2.08.04.08.08.12.16.2l9.6 12.32c.52.68 1.24 1.04 2.08 1.04h15.44c.84 0 1.56-.36 2.08-1.04l9.6-12.32c.52-.68.72-1.48.52-2.28l-3.44-15.4c-.16-.84-.68-1.48-1.44-1.84l-13.88-6.84c-.44-.2-.84-.32-1.28-.28zm0 1.08c.44-.04.8.04 1.2.24l13.2 6.48c.68.36 1.16.96 1.36 1.76l3.24 14.56c.16.8 0 1.52-.48 2.16l-9.12 11.68c-.48.64-1.16 1-1.96 1h-14.64c-.8 0-1.48-.36-1.96-1l-9.12-11.68c-.04-.04-.08-.12-.12-.2-.4-.6-.52-1.24-.36-1.96l3.24-14.56c.2-.8.64-1.4 1.36-1.76l13.2-6.48c.32-.16.6-.24.96-.28z" stroke="#000" stroke-opacity="0" stroke-width="3.83" fill="#fff"/><path d="M1411.85 28.34h-.8v1.83h.9V28.4h1.68v-.9h-1.78zm2.65.06h1.77v-.9h-1.77zm2.67 0h1.77v-.9h-1.77zm2.67 0h1.77v-.9h-1.76zm2.65 0h1.76v-.9h-1.77zm2.65 0h1.78v-.9h-1.78zm2.65 0h.26v.67h.9v-1.12c0-.3-.15-.45-.46-.45h-.7zm.26 3.4h.9V30h-.9zm-17 1.1h.88V31.1h-.9zm17 1.65h.9v-1.82h-.9zm-17 1.1h.88v-1.83h-.9zm17 1.65h.9v-1.83h-.9zm-17 1.1h.88v-1.84h-.9zm17 1.64h.9V38.2h-.9zm-17 1.1h.88V39.3h-.9zm17 1.64h.9v-1.83h-.9zm-17 .47c-.03.3.1.47.43.45h.6v-.9h-.16v-.75h-.9zm1.94.45h1.77v-.9H1413zm2.65 0h1.8v-.9h-1.8zm2.67 0h1.77v-.9h-1.78zm2.66 0h1.78v-.9h-1.78zm2.65 0h1.78v-.9h-1.77zm2.67 0h1.77v-.9h-1.77z" stroke="#000" stroke-opacity="0" stroke-width="3.77" fill="#fff"/><path d="M1419.9 296.66c-.4.03-.7.1-1 .26l-13.15 6.48c-.72.34-1.2.95-1.36 1.74l-3.27 14.6c-.15.67-.04 1.35.34 1.96.04.08.08.1.15.2l9.1 11.66c.5.64 1.17 1 1.97 1h14.6c.8 0 1.5-.36 1.98-1l9.1-11.67c.5-.65.68-1.4.5-2.2l-3.27-14.56c-.14-.8-.63-1.4-1.35-1.74l-13.15-6.48c-.42-.2-.8-.3-1.2-.26z" stroke="#000" stroke-opacity="0" stroke-width="3.83" fill="#326ce5"/><path d="M1419.88 295.6c-.4.04-.72.12-1.04.28l-13.88 6.84c-.76.36-1.28 1-1.44 1.84l-3.44 15.4c-.16.72-.04 1.44.36 2.08.04.08.08.12.16.2l9.6 12.32c.52.68 1.24 1.04 2.08 1.04h15.44c.84 0 1.56-.36 2.08-1.04l9.6-12.32c.52-.68.72-1.48.52-2.28l-3.44-15.4c-.16-.84-.68-1.48-1.44-1.84l-13.88-6.84c-.44-.2-.84-.32-1.28-.28zm0 1.08c.44-.04.8.04 1.2.24l13.2 6.48c.68.36 1.16.96 1.36 1.76l3.24 14.56c.16.8 0 1.52-.48 2.16l-9.12 11.68c-.48.64-1.16 1-1.96 1h-14.64c-.8 0-1.48-.36-1.96-1l-9.12-11.68c-.04-.04-.08-.12-.12-.2-.4-.6-.52-1.24-.36-1.96l3.24-14.56c.2-.8.64-1.4 1.36-1.76l13.2-6.48c.32-.16.6-.24.96-.28z" stroke="#000" stroke-opacity="0" stroke-width="3.83" fill="#fff"/><path d="M1411.85 308.34h-.8v1.83h.9v-1.77h1.68v-.9h-1.78zm2.65.06h1.77v-.9h-1.77zm2.67 0h1.77v-.9h-1.77zm2.67 0h1.77v-.9h-1.76zm2.65 0h1.76v-.9h-1.77zm2.65 0h1.78v-.9h-1.78zm2.65 0h.26v.67h.9v-1.12c0-.3-.15-.45-.46-.45h-.7zm.26 3.4h.9V310h-.9zm-17 1.1h.88v-1.82h-.9zm17 1.65h.9v-1.82h-.9zm-17 1.1h.88v-1.83h-.9zm17 1.65h.9v-1.83h-.9zm-17 1.1h.88v-1.84h-.9zm17 1.64h.9v-1.83h-.9zm-17 1.1h.88v-1.83h-.9zm17 1.64h.9v-1.83h-.9zm-17 .47c-.03.3.1.47.43.45h.6v-.9h-.16v-.75h-.9zm1.94.45h1.77v-.9H1413zm2.65 0h1.8v-.9h-1.8zm2.67 0h1.77v-.9h-1.78zm2.66 0h1.78v-.9h-1.78zm2.65 0h1.78v-.9h-1.77zm2.67 0h1.77v-.9h-1.77z" stroke="#000" stroke-opacity="0" stroke-width="3.77" fill="#fff"/><path d="M1280-8.4c0-3.3 2.7-6 6-6h48c3.3 0 6 2.7 6 6v18c0 3.3-2.7 6-6 6h-48c-3.3 0-6-2.7-6-6z" stroke="#000" stroke-opacity="0" stroke-width="3" fill="#fff" fill-opacity="0"/><use xlink:href="#s" transform="matrix(1,0,0,1,1285.0000000000002,-9.400000000000063) translate(2.8518518518518547 15.472222222222221)"/><path d="M1280 271.6c0-3.3 2.7-6 6-6h48c3.3 0 6 2.7 6 6v18c0 3.3-2.7 6-6 6h-48c-3.3 0-6-2.7-6-6z" stroke="#000" stroke-opacity="0" stroke-width="3" fill="#fff" fill-opacity="0"/><use xlink:href="#s" transform="matrix(1,0,0,1,1285.0000000000002,270.5999999999999) translate(2.8518518518518547 15.472222222222221)"/><path d="M1174.66 37.3l-.85 2.85-.8 3.45-.78 4.32-.68 5.77-.97 32.4-.46 7.68-.52 4.43-.55 3.15-.57 2.4-.58 1.94-.58 1.6-.58 1.36-.6 1.17-.57 1.03-.6.9-.6.83-.6.72-.62.67-.63.6-.65.57-.67.5-.7.5-.73.42-.76.4-.82.36-.86.34-.93.3-1 .26-1.1.22-1.18.17-1.33.1-.47.02-.06-2h.4l1.22-.1 1.07-.17.98-.2.88-.22.82-.27.75-.28.7-.32.67-.35.63-.38.6-.4.6-.46.55-.47.55-.53.55-.6.53-.64.53-.72.54-.82.53-.93.53-1.08.54-1.26.54-1.5.54-1.82.55-2.3.53-3.02.52-4.32.45-7.6.97-32.46.7-5.92.8-4.43.84-3.57.88-2.97.48-1.33h2.13zm86.86-35.38l-9.74.17-13.26.94-9.8 1.18-7.7 1.3-6.24 1.4-5.18 1.4-4.38 1.42-3.74 1.42-3.23 1.4-2.82 1.4-.07.04h-4.04l.6-.38 2.58-1.43 2.9-1.45 3.33-1.44 3.83-1.45 4.47-1.45 5.28-1.43 6.35-1.4 7.8-1.33 9.87-1.2L1251.7.1l9.78-.18z" stroke="#5e5e5e" stroke-width=".05" fill="#5e5e5e"/><path d="M1151.35 118.77l-.83.02-.44-2 1.22-.03z" fill="#5e5e5e"/><path d="M1151.38 118.8l-.88.02-.46-2.04 1.28-.03zm-1.27-1.97l.44 1.94.8-.02-.07-1.95z" stroke="#5e5e5e" stroke-width=".05" fill="#5e5e5e"/><path d="M1276.76.66l-14.18 4.88-.16-9.27z" fill="#5e5e5e"/><path d="M1280 .6l-18.4 6.33-.2-12.02zm-16.44 3.55l9.97-3.44-10.1-3.07z" stroke="#5e5e5e" stroke-width=".05" fill="#5e5e5e"/><g><use xlink:href="#t" transform="matrix(1,0,0,1,1114.8334556328336,14.000570815711534) translate(0 14.222222222222223)"/><use xlink:href="#u" transform="matrix(1,0,0,1,1114.8334556328336,14.000570815711534) translate(67.90123456790124 14.222222222222223)"/><use xlink:href="#v" transform="matrix(1,0,0,1,1114.8334556328336,14.000570815711534) translate(85.62962962962965 14.222222222222223)"/></g><path d="M1173.8 318.45l-.92 2.25-.87 2.55-.8 2.97-.75 3.53-.65 4.37-.5 5.82.08 27.84-.17 7.64-.35 4.17-.43 2.9-.46 2.22-.5 1.78-.5 1.48-.52 1.26-.52 1.1-.54.96-.55.85-.57.77-.58.7-.6.64-.62.6-.65.53-.67.5-.7.45-.77.43-.82.4-.88.37-.95.33-1.04.3-1.16.24-1.3.2-1.5.13-.67.02-.06-2 .62-.02 1.36-.12 1.18-.18 1.04-.22.93-.26.85-.3.77-.3.7-.36.66-.36.62-.4.58-.43.55-.45.54-.5.5-.55.52-.6.48-.68.48-.76.48-.85.48-.97.47-1.15.45-1.36.46-1.67.45-2.1.4-2.8.36-4.03.18-7.56-.08-27.9.52-5.97.66-4.5.77-3.66.85-3.08.9-2.67.98-2.36.2-.42h2.22zm87.76-36.23l-3.28.16-12.72 1.2-10.8 1.56-9.03 1.73-7.54 1.82-6.33 1.84-5.33 1.83-4.53 1.8-3.77 1.72h-4.4l3.43-1.77 3.97-1.8 4.62-1.84 5.42-1.87 6.4-1.87 7.63-1.84 9.13-1.76 10.9-1.56 12.8-1.22 3.33-.16z" stroke="#5e5e5e" stroke-width=".05" fill="#5e5e5e"/><path d="M1151.35 398.77l-.83.02-.44-2 1.2-.03z" fill="#5e5e5e"/><path d="M1151.38 398.8l-.88.02-.46-2.04 1.28-.04zm-1.27-1.97l.44 1.94.8-.02-.07-1.95z" stroke="#5e5e5e" stroke-width=".05" fill="#5e5e5e"/><path d="M1276.77 280.7l-14.1 5.12-.32-9.26z" fill="#5e5e5e"/><path d="M1280 280.6l-18.3 6.63-.4-12.02zm-16.38 3.8l9.9-3.58-10.12-2.92z" stroke="#5e5e5e" stroke-width=".05" fill="#5e5e5e"/><g><use xlink:href="#t" transform="matrix(1,0,0,1,1115.4066058384774,295.89053434847193) translate(0 14.222222222222223)"/><use xlink:href="#u" transform="matrix(1,0,0,1,1115.4066058384774,295.89053434847193) translate(67.90123456790124 14.222222222222223)"/><use xlink:href="#v" transform="matrix(1,0,0,1,1115.4066058384774,295.89053434847193) translate(85.62962962962965 14.222222222222223)"/></g><path d="M0 307.7c0-3.3 2.7-6 6-6h108c3.3 0 6 2.7 6 6v48c0 3.3-2.7 6-6 6H6c-3.3 0-6-2.7-6-6z" stroke="#000" stroke-opacity="0" stroke-width="3" fill="#fff" fill-opacity="0"/><g><use xlink:href="#w" transform="matrix(1,0,0,1,5,306.69999999999993) translate(18.580246913580254 17.34722222222222)"/><use xlink:href="#x" transform="matrix(1,0,0,1,5,306.69999999999993) translate(34.80246913580247 38.68055555555556)"/></g><defs><path fill="#fc9432" d="M67-125c0 53 21 87 73 88 37 1 54-22 65-47l45 17C233-25 199 4 140 4 58 4 20-42 15-125 8-235 124-281 211-232c18 10 29 29 36 50l-46 12c-8-25-30-41-62-41-52 0-71 34-72 86" id="y"/><path fill="#fc9432" d="M25 0v-261h50V0H25" id="z"/><path fill="#fc9432" d="M85 4C-2 5 27-109 22-190h50c7 57-23 150 33 157 60-5 35-97 40-157h50l1 190h-47c-2-12 1-28-3-38-12 25-28 42-61 42" id="A"/><path fill="#fc9432" d="M137-138c1-29-70-34-71-4 15 46 118 7 119 86 1 83-164 76-172 9l43-7c4 19 20 25 44 25 33 8 57-30 24-41C81-84 22-81 20-136c-2-80 154-74 161-7" id="B"/><path fill="#fc9432" d="M115-3C79 11 28 4 28-45v-112H4v-33h27l15-45h31v45h36v33H77v99c-1 23 16 31 38 25v30" id="C"/><path fill="#fc9432" d="M185-48c-13 30-37 53-82 52C43 2 14-33 14-96s30-98 90-98c62 0 83 45 84 108H66c0 31 8 55 39 56 18 0 30-7 34-22zm-45-69c5-46-57-63-70-21-2 6-4 13-4 21h74" id="D"/><path fill="#fc9432" d="M135-150c-39-12-60 13-60 57V0H25l-1-190h47c2 13-1 29 3 40 6-28 27-53 61-41v41" id="E"/><g id="a"><use transform="matrix(0.05,0,0,0.05,0,0)" xlink:href="#y"/><use transform="matrix(0.05,0,0,0.05,12.950000000000001,0)" xlink:href="#z"/><use transform="matrix(0.05,0,0,0.05,17.950000000000003,0)" xlink:href="#A"/><use transform="matrix(0.05,0,0,0.05,28.900000000000006,0)" xlink:href="#B"/><use transform="matrix(0.05,0,0,0.05,38.900000000000006,0)" xlink:href="#C"/><use transform="matrix(0.05,0,0,0.05,44.85000000000001,0)" xlink:href="#D"/><use transform="matrix(0.05,0,0,0.05,54.85,0)" xlink:href="#E"/></g><path fill="#fc9432" d="M199 0l-22-63H83L61 0H9l90-248h61L250 0h-51zm-33-102l-36-108c-10 38-24 72-36 108h72" id="F"/><use transform="matrix(0.05,0,0,0.05,0,0)" xlink:href="#F" id="b"/><path fill="#fc9432" d="M182-130c37 4 62 22 62 59C244 23 116-4 24 0v-248c84 5 203-23 205 63 0 31-19 50-47 55zM76-148c40-3 101 13 101-30 0-44-60-28-101-31v61zm0 110c48-3 116 14 116-37 0-48-69-32-116-35v72" id="G"/><use transform="matrix(0.05,0,0,0.05,0,0)" xlink:href="#G" id="c"/><path fill="#333" d="M199 0l-22-63H83L61 0H9l90-248h61L250 0h-51zm-33-102l-36-108c-10 38-24 72-36 108h72" id="H"/><path fill="#333" d="M220-157c-53 9-28 100-34 157h-49v-107c1-27-5-49-29-50C55-147 81-57 75 0H25l-1-190h47c2 12-1 28 3 38 10-53 101-56 108 0 13-22 24-43 59-42 82 1 51 116 57 194h-49v-107c-1-25-5-48-29-50" id="I"/><path fill="#333" d="M133-34C117-15 103 5 69 4 32 3 11-16 11-54c-1-60 55-63 116-61 1-26-3-47-28-47-18 1-26 9-28 27l-52-2c7-38 36-58 82-57s74 22 75 68l1 82c-1 14 12 18 25 15v27c-30 8-71 5-69-32zm-48 3c29 0 43-24 42-57-32 0-66-3-65 30 0 17 8 27 23 27" id="J"/><path fill="#333" d="M12 0v-35l95-120H19v-35h142v35L67-36h103V0H12" id="K"/><path fill="#333" d="M110-194c64 0 96 36 96 99 0 64-35 99-97 99-61 0-95-36-95-99 0-62 34-99 96-99zm-1 164c35 0 45-28 45-65 0-40-10-65-43-65-34 0-45 26-45 65 0 36 10 65 43 65" id="L"/><path fill="#333" d="M135-194c87-1 58 113 63 194h-50c-7-57 23-157-34-157-59 0-34 97-39 157H25l-1-190h47c2 12-1 28 3 38 12-26 28-41 61-42" id="M"/><g id="d"><use transform="matrix(0.049382716049382706,0,0,0.049382716049382706,0,0)" xlink:href="#H"/><use transform="matrix(0.049382716049382706,0,0,0.049382716049382706,12.790123456790122,0)" xlink:href="#I"/><use transform="matrix(0.049382716049382706,0,0,0.049382716049382706,28.592592592592588,0)" xlink:href="#J"/><use transform="matrix(0.049382716049382706,0,0,0.049382716049382706,38.469135802469125,0)" xlink:href="#K"/><use transform="matrix(0.049382716049382706,0,0,0.049382716049382706,47.35802469135801,0)" xlink:href="#L"/><use transform="matrix(0.049382716049382706,0,0,0.049382716049382706,58.172839506172814,0)" xlink:href="#M"/></g><path fill="#333" d="M169-182c-1-43-94-46-97-3 18 66 151 10 154 114 3 95-165 93-204 36-6-8-10-19-12-30l50-8c3 46 112 56 116 5-17-69-150-10-154-114-4-87 153-88 188-35 5 8 8 18 10 28" id="N"/><path fill="#333" d="M175 0L67-191c6 58 2 128 3 191H24v-248h59L193-55c-6-58-2-129-3-193h46V0h-61" id="O"/><g id="e"><use transform="matrix(0.049382716049382706,0,0,0.049382716049382706,0,0)" xlink:href="#N"/><use transform="matrix(0.049382716049382706,0,0,0.049382716049382706,11.85185185185185,0)" xlink:href="#O"/><use transform="matrix(0.049382716049382706,0,0,0.049382716049382706,24.64197530864197,0)" xlink:href="#N"/></g><path fill="#333" d="M140-251c80 0 125 45 125 126 0 70-33 111-92 124 6 28 34 38 68 31l-1 36C177 83 129 55 120 2 51-6 15-50 15-125c0-81 44-126 125-126zm-1 214c52 0 73-35 73-88 0-50-21-86-72-86-52 0-73 35-73 86s22 88 72 88" id="P"/><g id="f"><use transform="matrix(0.049382716049382706,0,0,0.049382716049382706,0,0)" xlink:href="#N"/><use transform="matrix(0.049382716049382706,0,0,0.049382716049382706,11.85185185185185,0)" xlink:href="#P"/><use transform="matrix(0.049382716049382706,0,0,0.049382716049382706,25.679012345679006,0)" xlink:href="#N"/></g><path fill="#333" d="M85 4C-2 5 27-109 22-190h50c7 57-23 150 33 157 60-5 35-97 40-157h50l1 190h-47c-2-12 1-28-3-38-12 25-28 42-61 42" id="Q"/><path fill="#333" d="M185-48c-13 30-37 53-82 52C43 2 14-33 14-96s30-98 90-98c62 0 83 45 84 108H66c0 31 8 55 39 56 18 0 30-7 34-22zm-45-69c5-46-57-63-70-21-2 6-4 13-4 21h74" id="R"/><g id="g"><use transform="matrix(0.04938271604938272,0,0,0.04938271604938272,0,0)" xlink:href="#P"/><use transform="matrix(0.04938271604938272,0,0,0.04938271604938272,13.827160493827162,0)" xlink:href="#Q"/><use transform="matrix(0.04938271604938272,0,0,0.04938271604938272,24.641975308641975,0)" xlink:href="#R"/><use transform="matrix(0.04938271604938272,0,0,0.04938271604938272,34.51851851851852,0)" xlink:href="#Q"/><use transform="matrix(0.04938271604938272,0,0,0.04938271604938272,45.333333333333336,0)" xlink:href="#R"/></g><path fill="#333" d="M24 0v-248h52v208h133V0H24" id="S"/><path fill="#333" d="M25-224v-37h50v37H25zM25 0v-190h50V0H25" id="T"/><path fill="#333" d="M137-138c1-29-70-34-71-4 15 46 118 7 119 86 1 83-164 76-172 9l43-7c4 19 20 25 44 25 33 8 57-30 24-41C81-84 22-81 20-136c-2-80 154-74 161-7" id="U"/><path fill="#333" d="M115-3C79 11 28 4 28-45v-112H4v-33h27l15-45h31v45h36v33H77v99c-1 23 16 31 38 25v30" id="V"/><path fill="#333" d="M135-150c-39-12-60 13-60 57V0H25l-1-190h47c2 13-1 29 3 40 6-28 27-53 61-41v41" id="W"/><g id="h"><use transform="matrix(0.04938271604938272,0,0,0.04938271604938272,0,0)" xlink:href="#S"/><use transform="matrix(0.04938271604938272,0,0,0.04938271604938272,10.814814814814815,0)" xlink:href="#T"/><use transform="matrix(0.04938271604938272,0,0,0.04938271604938272,15.753086419753087,0)" xlink:href="#U"/><use transform="matrix(0.04938271604938272,0,0,0.04938271604938272,25.629629629629633,0)" xlink:href="#V"/><use transform="matrix(0.04938271604938272,0,0,0.04938271604938272,31.506172839506174,0)" xlink:href="#R"/><use transform="matrix(0.04938271604938272,0,0,0.04938271604938272,41.38271604938272,0)" xlink:href="#M"/><use transform="matrix(0.04938271604938272,0,0,0.04938271604938272,52.19753086419754,0)" xlink:href="#R"/><use transform="matrix(0.04938271604938272,0,0,0.04938271604938272,62.074074074074076,0)" xlink:href="#W"/></g><path fill="#333" d="M121-226c-27-7-43 5-38 36h38v33H83V0H34v-157H6v-33h28c-9-59 32-81 87-68v32" id="X"/><g id="i"><use transform="matrix(0.049382716049382706,0,0,0.049382716049382706,0,0)" xlink:href="#U"/><use transform="matrix(0.049382716049382706,0,0,0.049382716049382706,9.87654320987654,0)" xlink:href="#M"/><use transform="matrix(0.049382716049382706,0,0,0.049382716049382706,20.691358024691354,0)" xlink:href="#X"/></g><g id="j"><use transform="matrix(0.049382716049382706,0,0,0.049382716049382706,0,0)" xlink:href="#M"/><use transform="matrix(0.049382716049382706,0,0,0.049382716049382706,10.814814814814813,0)" xlink:href="#U"/></g><g id="k"><use transform="matrix(0.049382716049382706,0,0,0.049382716049382706,0,0)" xlink:href="#S"/><use transform="matrix(0.049382716049382706,0,0,0.049382716049382706,10.814814814814813,0)" xlink:href="#T"/><use transform="matrix(0.049382716049382706,0,0,0.049382716049382706,15.753086419753084,0)" xlink:href="#U"/><use transform="matrix(0.049382716049382706,0,0,0.049382716049382706,25.629629629629626,0)" xlink:href="#V"/><use transform="matrix(0.049382716049382706,0,0,0.049382716049382706,31.506172839506167,0)" xlink:href="#R"/><use transform="matrix(0.049382716049382706,0,0,0.049382716049382706,41.38271604938271,0)" xlink:href="#M"/><use transform="matrix(0.049382716049382706,0,0,0.049382716049382706,52.19753086419752,0)" xlink:href="#R"/><use transform="matrix(0.049382716049382706,0,0,0.049382716049382706,62.07407407407406,0)" xlink:href="#W"/></g><path fill="#333" d="M140-251c80 0 125 45 125 126S219 4 139 4C58 4 15-44 15-125s44-126 125-126zm-1 214c52 0 73-35 73-88 0-50-21-86-72-86-52 0-73 35-73 86s22 88 72 88" id="Y"/><path fill="#333" d="M135-194c53 0 70 44 70 98 0 56-19 98-73 100-31 1-45-17-59-34 3 33 2 69 2 105H25l-1-265h48c2 10 0 23 3 31 11-24 29-35 60-35zM114-30c33 0 39-31 40-66 0-38-9-64-40-64-56 0-55 130 0 130" id="Z"/><g id="l"><use transform="matrix(0.049382716049382706,0,0,0.049382716049382706,0,0)" xlink:href="#Y"/><use transform="matrix(0.049382716049382706,0,0,0.049382716049382706,13.827160493827158,0)" xlink:href="#Z"/><use transform="matrix(0.049382716049382706,0,0,0.049382716049382706,24.64197530864197,0)" xlink:href="#R"/><use transform="matrix(0.049382716049382706,0,0,0.049382716049382706,34.51851851851851,0)" xlink:href="#W"/><use transform="matrix(0.049382716049382706,0,0,0.049382716049382706,41.43209876543209,0)" xlink:href="#J"/><use transform="matrix(0.049382716049382706,0,0,0.049382716049382706,51.30864197530863,0)" xlink:href="#V"/><use transform="matrix(0.049382716049382706,0,0,0.049382716049382706,57.185185185185176,0)" xlink:href="#L"/><use transform="matrix(0.049382716049382706,0,0,0.049382716049382706,67.99999999999999,0)" xlink:href="#W"/></g><path fill="#333" d="M67-125c0 53 21 87 73 88 37 1 54-22 65-47l45 17C233-25 199 4 140 4 58 4 20-42 15-125 8-235 124-281 211-232c18 10 29 29 36 50l-46 12c-8-25-30-41-62-41-52 0-71 34-72 86" id="aa"/><path fill="#333" d="M240-174c0 40-23 61-54 70L253 0h-59l-57-94H76V0H24v-248c93 4 217-23 216 74zM76-134c48-2 112 12 112-38 0-48-66-32-112-35v73" id="ab"/><path fill="#333" d="M24-248c120-7 223 5 221 122C244-46 201 0 124 0H24v-248zM76-40c74 7 117-18 117-86 0-67-45-88-117-82v168" id="ac"/><g id="m"><use transform="matrix(0.049382716049382706,0,0,0.049382716049382706,0,0)" xlink:href="#aa"/><use transform="matrix(0.049382716049382706,0,0,0.049382716049382706,12.790123456790122,0)" xlink:href="#ab"/><use transform="matrix(0.049382716049382706,0,0,0.049382716049382706,25.580246913580243,0)" xlink:href="#ac"/></g><g id="n"><use transform="matrix(0.04938271604938272,0,0,0.04938271604938272,0,0)" xlink:href="#aa"/><use transform="matrix(0.04938271604938272,0,0,0.04938271604938272,12.790123456790125,0)" xlink:href="#W"/><use transform="matrix(0.04938271604938272,0,0,0.04938271604938272,19.703703703703706,0)" xlink:href="#R"/><use transform="matrix(0.04938271604938272,0,0,0.04938271604938272,29.58024691358025,0)" xlink:href="#J"/><use transform="matrix(0.04938271604938272,0,0,0.04938271604938272,39.4567901234568,0)" xlink:href="#V"/><use transform="matrix(0.04938271604938272,0,0,0.04938271604938272,45.33333333333334,0)" xlink:href="#R"/></g><path fill="#333" d="M24-248c93 1 206-16 204 79-1 75-69 88-152 82V0H24v-248zm52 121c47 0 100 7 100-41 0-47-54-39-100-39v80" id="ad"/><path fill="#333" d="M88-194c31-1 46 15 58 34l-1-101h50l1 261h-48c-2-10 0-23-3-31C134-8 116 4 84 4 32 4 16-41 15-95c0-56 19-97 73-99zm17 164c33 0 40-30 41-66 1-37-9-64-41-64s-38 30-39 65c0 43 13 65 39 65" id="ae"/><g id="o"><use transform="matrix(0.049382716049382706,0,0,0.049382716049382706,0,0)" xlink:href="#ad"/><use transform="matrix(0.049382716049382706,0,0,0.049382716049382706,11.85185185185185,0)" xlink:href="#L"/><use transform="matrix(0.049382716049382706,0,0,0.049382716049382706,22.666666666666664,0)" xlink:href="#ae"/></g><g id="p"><use transform="matrix(0.049382716049382706,0,0,0.049382716049382706,0,0)" xlink:href="#ac"/><use transform="matrix(0.049382716049382706,0,0,0.049382716049382706,12.790123456790122,0)" xlink:href="#R"/><use transform="matrix(0.049382716049382706,0,0,0.049382716049382706,22.666666666666664,0)" xlink:href="#Z"/></g><path fill="#333" d="M136-208V0H84v-208H4v-40h212v40h-80" id="af"/><g id="q"><use transform="matrix(0.04938271604938272,0,0,0.04938271604938272,0,0)" xlink:href="#af"/><use transform="matrix(0.04938271604938272,0,0,0.04938271604938272,9.481481481481481,0)" xlink:href="#R"/><use transform="matrix(0.04938271604938272,0,0,0.04938271604938272,19.358024691358025,0)" xlink:href="#W"/><use transform="matrix(0.04938271604938272,0,0,0.04938271604938272,26.271604938271608,0)" xlink:href="#I"/><use transform="matrix(0.04938271604938272,0,0,0.04938271604938272,42.074074074074076,0)" xlink:href="#T"/><use transform="matrix(0.04938271604938272,0,0,0.04938271604938272,47.01234567901235,0)" xlink:href="#M"/><use transform="matrix(0.04938271604938272,0,0,0.04938271604938272,57.827160493827165,0)" xlink:href="#J"/><use transform="matrix(0.04938271604938272,0,0,0.04938271604938272,67.70370370370371,0)" xlink:href="#V"/><use transform="matrix(0.04938271604938272,0,0,0.04938271604938272,73.58024691358025,0)" xlink:href="#R"/></g><path fill="#333" d="M190-63c-7 42-38 67-86 67-59 0-84-38-90-98-12-110 154-137 174-36l-49 2c-2-19-15-32-35-32-30 0-35 28-38 64-6 74 65 87 74 30" id="ag"/><path fill="#333" d="M25 0v-261h50V0H25" id="ah"/><g id="r"><use transform="matrix(0.04938271604938272,0,0,0.04938271604938272,0,0)" xlink:href="#N"/><use transform="matrix(0.04938271604938272,0,0,0.04938271604938272,11.851851851851853,0)" xlink:href="#ag"/><use transform="matrix(0.04938271604938272,0,0,0.04938271604938272,21.7283950617284,0)" xlink:href="#J"/><use transform="matrix(0.04938271604938272,0,0,0.04938271604938272,31.60493827160494,0)" xlink:href="#ah"/><use transform="matrix(0.04938271604938272,0,0,0.04938271604938272,36.543209876543216,0)" xlink:href="#R"/></g><g id="s"><use transform="matrix(0.049382716049382706,0,0,0.049382716049382706,0,0)" xlink:href="#O"/><use transform="matrix(0.049382716049382706,0,0,0.049382716049382706,12.790123456790122,0)" xlink:href="#L"/><use transform="matrix(0.049382716049382706,0,0,0.049382716049382706,23.604938271604937,0)" xlink:href="#ae"/><use transform="matrix(0.049382716049382706,0,0,0.049382716049382706,34.419753086419746,0)" xlink:href="#R"/></g><g id="t"><use transform="matrix(0.04938271604938272,0,0,0.04938271604938272,0,0)" xlink:href="#aa"/><use transform="matrix(0.04938271604938272,0,0,0.04938271604938272,12.790123456790125,0)" xlink:href="#L"/><use transform="matrix(0.04938271604938272,0,0,0.04938271604938272,23.60493827160494,0)" xlink:href="#W"/><use transform="matrix(0.04938271604938272,0,0,0.04938271604938272,30.518518518518523,0)" xlink:href="#ae"/><use transform="matrix(0.04938271604938272,0,0,0.04938271604938272,41.333333333333336,0)" xlink:href="#L"/><use transform="matrix(0.04938271604938272,0,0,0.04938271604938272,52.14814814814815,0)" xlink:href="#M"/></g><path fill="#333" d="M168-19C124 19 11 11 16-68c3-43 29-60 59-75-25-44-12-111 53-106 37 3 64 15 64 52 0 43-40 52-69 68 12 22 27 41 43 59 14-19 21-38 28-64l37 13c-8 29-19 52-34 74 12 10 32 16 52 10v35c-28 11-65-2-81-17zm-58-139c19-9 43-14 43-39 0-14-10-22-25-22-34 0-33 41-18 61zM60-68c-3 40 55 47 79 25-18-20-34-42-48-67-18 8-30 20-31 42" id="ai"/><use transform="matrix(0.04938271604938272,0,0,0.04938271604938272,0,0)" xlink:href="#ai" id="u"/><g id="v"><use transform="matrix(0.04938271604938272,0,0,0.04938271604938272,0,0)" xlink:href="#ac"/><use transform="matrix(0.04938271604938272,0,0,0.04938271604938272,12.790123456790125,0)" xlink:href="#W"/><use transform="matrix(0.04938271604938272,0,0,0.04938271604938272,19.703703703703706,0)" xlink:href="#J"/><use transform="matrix(0.04938271604938272,0,0,0.04938271604938272,29.58024691358025,0)" xlink:href="#T"/><use transform="matrix(0.04938271604938272,0,0,0.04938271604938272,34.51851851851852,0)" xlink:href="#M"/></g><path fill="#333" d="M195-6C206 82 75 100 31 46c-4-6-6-13-8-21l49-6c3 16 16 24 34 25 40 0 42-37 40-79-11 22-30 35-61 35-53 0-70-43-70-97 0-56 18-96 73-97 30 0 46 14 59 34l2-30h47zm-90-29c32 0 41-27 41-63 0-35-9-62-40-62-32 0-39 29-40 63 0 36 9 62 39 62" id="aj"/><g id="w"><use transform="matrix(0.049382716049382706,0,0,0.049382716049382706,0,0)" xlink:href="#ac"/><use transform="matrix(0.049382716049382706,0,0,0.049382716049382706,12.790123456790122,0)" xlink:href="#J"/><use transform="matrix(0.049382716049382706,0,0,0.049382716049382706,22.666666666666664,0)" xlink:href="#V"/><use transform="matrix(0.049382716049382706,0,0,0.049382716049382706,28.543209876543205,0)" xlink:href="#J"/><use transform="matrix(0.049382716049382706,0,0,0.049382716049382706,38.419753086419746,0)" xlink:href="#ac"/><use transform="matrix(0.049382716049382706,0,0,0.049382716049382706,51.209876543209866,0)" xlink:href="#L"/><use transform="matrix(0.049382716049382706,0,0,0.049382716049382706,62.02469135802468,0)" xlink:href="#aj"/></g><g id="x"><use transform="matrix(0.049382716049382706,0,0,0.049382716049382706,0,0)" xlink:href="#H"/><use transform="matrix(0.049382716049382706,0,0,0.049382716049382706,12.790123456790122,0)" xlink:href="#ah"/><use transform="matrix(0.049382716049382706,0,0,0.049382716049382706,17.728395061728392,0)" xlink:href="#R"/><use transform="matrix(0.049382716049382706,0,0,0.049382716049382706,27.604938271604933,0)" xlink:href="#W"/><use transform="matrix(0.049382716049382706,0,0,0.049382716049382706,34.51851851851851,0)" xlink:href="#V"/></g></defs></g></svg>
